<?xml version="1.0" encoding="UTF-8"?>
<!DOCTYPE svg PUBLIC "-//W3C//DTD SVG 1.1//EN" "http://www.w3.org/Graphics/SVG/1.1/DTD/svg11.dtd">
<!-- Creator: CorelDRAW X8 -->
<svg xmlns="http://www.w3.org/2000/svg" xml:space="preserve" width="350px" height="220px" version="1.1" shape-rendering="geometricPrecision" text-rendering="geometricPrecision" image-rendering="optimizeQuality" fill-rule="evenodd" clip-rule="evenodd"
viewBox="0 0 350 220"
 xmlns:xlink="http://www.w3.org/1999/xlink">
 <g id="Слой_x0020_1">
  <metadata id="CorelCorpID_0Corel-Layer"/>
  <g id="_987372176">
   <path fill="#E8E8E8" d="M253 214l-226 0c-9,0 -16,-8 -16,-17l0 -145 259 0 0 145c0,9 -8,17 -17,17z"/>
   <path fill="#90DCA3" d="M232 128l-87 0c-7,0 -13,-5 -13,-13l0 -36c0,-7 6,-13 13,-13l87 0c7,0 13,6 13,13l0 36c0,8 -6,13 -13,13z"/>
   <path fill="#404B58" d="M253 10l-226 0c-9,0 -16,8 -16,17l0 19 259 0 0 -19c0,-9 -8,-17 -17,-17z"/>
   <circle fill="#ED718B" cx="46" cy="28" r="7"/>
   <circle fill="#FBE096" cx="72" cy="28" r="7"/>
   <circle fill="#90DCA3" cx="99" cy="28" r="7"/>
   <path fill="white" d="M102 100l-60 0c-3,0 -6,-3 -6,-6l0 -13c0,-3 3,-5 6,-5l60 0c3,0 6,2 6,5l0 13c0,3 -3,6 -6,6z"/>
   <path fill="#ED718B" d="M172 184l-34 0c-3,0 -6,-3 -6,-7l0 -10c0,-3 3,-6 6,-6l34 0c3,0 6,3 6,6l0 10c0,4 -3,7 -6,7z"/>
   <path fill="#79C6E4" d="M239 184l-34 0c-3,0 -6,-3 -6,-7l0 -10c0,-3 3,-6 6,-6l34 0c3,0 6,3 6,6l0 10c0,4 -3,7 -6,7z"/>
   <path fill="black" fill-opacity="0.101961" d="M253 10l-17 0c9,0 16,8 16,17l0 19 -241 0 0 9 241 0 0 136c0,9 -7,17 -16,17l17 0c9,0 17,-8 17,-17l0 -164c0,-9 -8,-17 -17,-17z"/>
   <path fill="black" d="M36 165l24 0c2,0 4,-2 4,-4 0,-2 -2,-4 -4,-4l-24 0c-2,0 -4,2 -4,4 0,2 2,4 4,4zm0 -16l48 0c2,0 4,-2 4,-4 0,-2 -2,-4 -4,-4l-48 0c-2,0 -4,2 -4,4 0,2 2,4 4,4zm217 -142l-226 0c-11,0 -20,9 -20,20l0 125c0,2 2,3 4,3 2,0 4,-1 4,-3l0 -102 209 0c2,0 4,-2 4,-4 0,-2 -2,-4 -4,-4l-209 0 0 -15c0,-7 5,-13 12,-13l226 0c7,0 13,6 13,13l0 15 -15 0c-2,0 -3,2 -3,4 0,2 1,4 3,4l15 0 0 141c0,7 -6,13 -13,13l-226 0c-7,0 -12,-6 -12,-13l0 -15c0,-2 -2,-4 -4,-4 -2,0 -4,2 -4,4l0 15c0,11 9,20 20,20l226 0c11,0 21,-9 21,-20l0 -164c0,-11 -10,-20 -21,-20zm-217 125l48 0c2,0 4,-1 4,-3 0,-3 -2,-4 -4,-4l-48 0c-2,0 -4,1 -4,4 0,2 2,3 4,3zm6 -28l60 0c6,0 10,-4 10,-10l0 -13c0,-5 -4,-9 -10,-9l-60 0c-5,0 -10,4 -10,9l0 13c0,6 5,10 10,10zm-2 -23c0,-1 1,-2 2,-2l60 0c1,0 2,1 2,2l0 13c0,1 -1,2 -2,2l-60 0c-1,0 -2,-1 -2,-2l0 -13zm165 107l34 0c5,0 10,-5 10,-11l0 -10c0,-6 -5,-10 -10,-10l-34 0c-5,0 -10,4 -10,10l0 10c0,6 5,11 10,11zm-2 -21c0,-1 1,-2 2,-2l34 0c1,0 2,1 2,2l0 10c0,2 -1,3 -2,3l-34 0c-1,0 -2,-1 -2,-3l0 -10zm46 -88c0,-9 -8,-17 -17,-17l-87 0c-9,0 -17,8 -17,17l0 36c0,10 8,17 17,17l87 0c9,0 17,-7 17,-17l0 -36 0 0zm-8 36c0,5 -4,10 -9,10l-87 0c-5,0 -9,-5 -9,-10l0 -36c0,-5 4,-9 9,-9l87 0c5,0 9,4 9,9l0 36 0 0zm-113 62c0,6 4,11 10,11l34 0c5,0 10,-5 10,-11l0 -10c0,-6 -5,-10 -10,-10l-34 0c-6,0 -10,4 -10,10l0 10zm8 -10c0,-1 1,-2 2,-2l34 0c1,0 2,1 2,2l0 10c0,2 -1,3 -2,3l-34 0c-1,0 -2,-1 -2,-3l0 -10zm87 -79c-2,0 -4,2 -4,4l0 6c0,2 2,3 4,3 2,0 4,-1 4,-3l0 -6c0,-2 -2,-4 -4,-4zm16 57c0,-2 -2,-4 -4,-4l-93 0c-2,0 -4,2 -4,4 0,2 2,4 4,4l93 0c2,0 4,-2 4,-4zm-85 -57c-2,0 -4,2 -4,4l0 6c0,2 2,3 4,3 2,0 4,-1 4,-3l0 -6c0,-2 -2,-4 -4,-4zm46 7c-1,-2 -4,-1 -5,0 -2,2 -4,3 -7,3 -2,0 -4,-1 -6,-3 -1,-1 -4,-2 -5,0 -2,1 -2,4 -1,5 3,4 8,6 12,6 5,0 9,-2 13,-6 1,-1 1,-4 -1,-5z"/>
   <g>
   </g>
   <g>
   </g>
   <g>
   </g>
   <g>
   </g>
   <g>
   </g>
   <g>
   </g>
   <g>
   </g>
   <g>
   </g>
   <g>
   </g>
   <g>
   </g>
   <g>
   </g>
   <g>
   </g>
   <g>
   </g>
   <g>
   </g>
   <g>
   </g>
  </g>
  <g id="_987378960">
   <path fill="#00BBD3" d="M311 196l0 0c-1,0 -2,-1 -2,-1l-12 -13c-1,-1 -1,-2 0,-3 1,-1 3,-1 4,0l10 11 28 -28c1,-1 2,-1 3,0 1,1 1,2 0,3l-30 30c0,1 -1,1 -1,1z"/>
   <path fill="#3A2C51" d="M313 216c-17,0 -31,-14 -31,-31 0,-18 14,-32 31,-32 1,0 2,1 2,3 0,1 -1,2 -2,2 -15,0 -27,12 -27,27 0,14 12,26 27,26 14,0 26,-12 26,-26 0,-2 1,-3 3,-3 1,0 2,1 2,3 0,17 -14,31 -31,31z"/>
   <g>
   </g>
   <g>
   </g>
   <g>
   </g>
   <g>
   </g>
   <g>
   </g>
   <g>
   </g>
   <g>
   </g>
   <g>
   </g>
   <g>
   </g>
   <g>
   </g>
   <g>
   </g>
   <g>
   </g>
   <g>
   </g>
   <g>
   </g>
   <g>
   </g>
  </g>
  <g id="_987370160">
   <path fill="#FFC107" d="M341 42c-1,-1 -3,-2 -4,-3 1,-2 1,-4 2,-5 1,-3 3,-6 1,-9 -1,-2 -5,-3 -8,-3 -2,0 -3,0 -5,-1 -1,-2 -1,-3 -1,-5 0,-3 -1,-7 -3,-8 -3,-2 -6,0 -9,1 -2,1 -3,1 -5,1 -1,0 -2,-2 -3,-3 -2,-3 -4,-6 -7,-6 -3,0 -6,3 -7,6 -2,1 -3,3 -4,3 -1,0 -3,0 -5,-1 -3,-1 -6,-3 -8,-1 -3,1 -3,5 -4,8 0,2 0,3 -1,5 -1,1 -3,1 -5,1 -3,0 -6,1 -8,3 -1,3 0,6 1,9 1,1 2,3 2,5 0,1 -2,2 -4,3 -2,2 -5,4 -5,7 0,3 3,5 5,7 2,1 4,3 4,4 0,1 -1,3 -2,5 -1,3 -2,6 -1,8 2,3 5,3 8,4 2,0 4,0 5,1 1,1 1,3 1,5 1,3 1,6 4,8 2,1 5,0 8,-1 2,-1 4,-2 5,-2 1,0 2,2 4,4 1,2 4,5 7,5 3,0 5,-3 7,-5 1,-2 2,-4 3,-4 2,0 3,1 5,2 3,1 6,2 9,1 2,-2 3,-5 3,-8 0,-2 0,-4 1,-5 2,-1 3,-1 5,-1 3,-1 7,-1 8,-4 2,-2 0,-5 -1,-8 -1,-2 -1,-4 -2,-5 1,-1 3,-3 4,-4 3,-2 5,-4 5,-7 0,-3 -2,-5 -5,-7z"/>
   <g>
    <path fill="#FAFAFA" d="M286 60c-1,0 -1,-1 -2,-1l-8 -12 0 11c0,1 -1,2 -2,2 -1,0 -2,-1 -2,-2l0 -17c0,-1 1,-2 2,-2 0,0 1,0 1,1l9 11 0 -10c0,-1 1,-2 2,-2 1,0 2,1 2,2l0 17c0,0 0,1 -1,2 0,0 -1,0 -1,0z"/>
    <path fill="#FAFAFA" d="M303 60l-9 0c-1,0 -2,-1 -2,-2l0 -17c0,-1 1,-2 2,-2l9 0c1,0 2,1 2,2 0,1 -1,2 -2,2l-6 0 0 13 6 0c1,0 2,0 2,2 0,1 -1,2 -2,2z"/>
    <path fill="#FAFAFA" d="M303 51l-9 0c-1,0 -2,-1 -2,-2 0,-1 1,-2 2,-2l9 0c1,0 2,1 2,2 0,1 -1,2 -2,2z"/>
    <path fill="#FAFAFA" d="M324 60c-1,0 -2,-1 -2,-2l-3 -6 -2 6c0,1 -1,2 -2,2 -1,0 -2,-1 -2,-2l-4 -17c0,-1 0,-2 2,-2 1,0 2,0 2,1l3 10 1 -6c1,-1 2,-1 3,-1 1,1 1,1 1,1l2 6 3 -10c0,-1 1,-1 2,-1 1,0 2,1 2,2l-4 17c-1,1 -1,2 -2,2l0 0z"/>
   </g>
   <path fill="black" d="M299 97c-3,0 -6,-3 -7,-5 -2,-2 -3,-4 -4,-4 -1,0 -3,1 -5,2 -3,1 -6,2 -8,1 -3,-2 -3,-5 -4,-8 0,-2 0,-4 -1,-5 -1,-1 -3,-1 -5,-1 -3,-1 -6,-1 -8,-4 -1,-2 0,-5 1,-8 1,-2 2,-4 2,-5 0,-1 -2,-3 -4,-4 -2,-2 -5,-4 -5,-7 0,-3 3,-5 5,-7 2,-1 4,-2 4,-3 0,-2 -1,-4 -2,-5 -1,-3 -2,-6 -1,-9 2,-2 5,-3 8,-3 2,0 4,0 5,-1 1,-2 1,-3 1,-5 1,-3 1,-7 4,-8 2,-2 5,0 8,1 2,1 4,1 5,1 1,0 2,-2 4,-3 1,-3 4,-6 7,-6 3,0 5,3 7,6 1,1 2,3 3,3 2,0 3,0 5,-1 3,-1 6,-3 9,-1 2,1 3,5 3,8 0,2 0,3 1,5 2,1 3,1 5,1 3,0 7,1 8,3 2,3 0,6 -1,9 -1,1 -1,3 -2,5 1,1 3,2 4,3 3,2 5,4 5,7 0,3 -2,5 -5,7 -1,1 -3,3 -4,4 1,1 1,3 2,5 1,3 3,6 1,8 -1,3 -5,3 -8,4 -2,0 -3,0 -5,1 -1,1 -1,3 -1,5 0,3 -1,6 -3,8 -3,1 -6,0 -9,-1 -2,-1 -3,-2 -5,-2 -1,0 -2,2 -3,4 -2,2 -4,5 -7,5zm-11 -13c0,0 1,0 1,0 3,1 5,3 6,5 1,2 3,4 4,4 1,0 2,-2 3,-4 2,-2 4,-4 6,-5 3,0 5,0 8,2 1,0 4,2 4,1 1,0 2,-3 2,-5 0,-3 1,-5 2,-7 2,-2 5,-3 7,-3 2,0 5,0 5,-1 1,-1 0,-3 -1,-5 -1,-2 -2,-5 -2,-7 2,-3 3,-5 6,-6 1,-1 3,-3 3,-4 0,-1 -2,-2 -3,-3 -3,-2 -5,-4 -6,-6 0,-3 1,-5 2,-8 1,-1 2,-4 1,-5 0,0 -3,-1 -5,-1 -2,0 -5,-1 -7,-2 -1,-2 -2,-5 -2,-8 0,-1 -1,-4 -2,-5 0,0 -3,1 -4,2 -3,1 -5,2 -8,1 -2,-1 -4,-2 -6,-5 -1,-1 -2,-3 -3,-3 -1,0 -3,2 -4,3 -1,3 -3,4 -6,5 -2,1 -5,0 -7,-1 -2,-1 -4,-2 -5,-2 -1,1 -1,4 -2,5 1,3 0,6 -2,8 -2,1 -5,2 -7,2 -2,0 -5,1 -5,1 -1,1 0,4 1,5 2,3 2,5 2,8 -1,2 -3,4 -5,6 -2,1 -4,2 -4,3 0,1 2,3 4,4 2,1 4,3 5,6 0,2 0,5 -2,7 -1,2 -2,4 -1,5 0,1 3,1 5,1 2,0 5,1 7,3 2,2 3,4 2,7 1,2 1,5 2,5 1,1 3,-1 5,-1 2,-1 4,-2 6,-2z"/>
   <path fill="black" d="M286 60c-1,0 -1,-1 -2,-1l-8 -12 0 11c0,1 -1,2 -2,2 -1,0 -2,-1 -2,-2l0 -17c0,-1 1,-2 2,-2 0,0 1,0 1,1l9 11 0 -10c0,-1 1,-2 2,-2 1,0 2,1 2,2l0 17c0,0 0,1 -1,2 0,0 -1,0 -1,0z"/>
   <path fill="black" d="M303 60l-9 0c-1,0 -2,-1 -2,-2l0 -17c0,-1 1,-2 2,-2l9 0c1,0 2,1 2,2 0,1 -1,2 -2,2l-6 0 0 13 6 0c1,0 2,0 2,2 0,1 -1,2 -2,2z"/>
   <path fill="black" d="M303 51l-9 0c-1,0 -2,-1 -2,-2 0,-1 1,-2 2,-2l9 0c1,0 2,1 2,2 0,1 -1,2 -2,2z"/>
   <path fill="black" d="M324 60c-1,0 -2,-1 -2,-2l-3 -6 -2 6c0,1 -1,2 -2,2 -1,-1 -2,-1 -2,-2l-4 -17c0,-1 0,-2 2,-2 1,0 2,0 2,1 0,0 0,0 0,0l3 10 1 -6c1,-1 2,-1 3,-1 1,1 1,1 1,1l2 6 3 -10c0,-1 1,-1 2,-1 1,0 2,1 2,2 0,0 0,0 0,0l-4 17c-1,1 -1,2 -2,2l0 0z"/>
   <g>
   </g>
   <g>
   </g>
   <g>
   </g>
   <g>
   </g>
   <g>
   </g>
   <g>
   </g>
   <g>
   </g>
   <g>
   </g>
   <g>
   </g>
   <g>
   </g>
   <g>
   </g>
   <g>
   </g>
   <g>
   </g>
   <g>
   </g>
   <g>
   </g>
  </g>
  <rect fill="#E8E8E8" x="125" y="59" width="124.4" height="80"/>
  <path fill="green" stroke="green" stroke-width="0.999987" d="M153 137l5 0 0 -6 66 0 0 6 4 0 0 -71c0,-2 -2,-4 -4,-4l-66 0c-3,0 -5,2 -5,4l0 71 0 0zm5 -11l0 -16 66 0 0 16 -66 0zm0 -21l0 -17 66 0 0 17 -66 0zm0 -22l0 -17 66 0 0 17 -66 0zm21 -10l23 0c2,0 3,1 3,2 0,1 -1,2 -3,2l-23 0c-1,0 -2,-1 -2,-2 0,-1 1,-2 2,-2zm0 21l23 0c2,0 3,1 3,2 0,2 -1,3 -3,3l-23 0c-1,0 -2,-1 -2,-3 0,-1 1,-2 2,-2zm0 22l23 0c2,0 3,1 3,2 0,1 -1,2 -3,2l-23 0c-1,0 -2,-1 -2,-2 0,-1 1,-2 2,-2z"/>
 </g>
</svg>
