<?xml version="1.0" encoding="UTF-8"?>
<!DOCTYPE svg PUBLIC "-//W3C//DTD SVG 1.1//EN" "http://www.w3.org/Graphics/SVG/1.1/DTD/svg11.dtd">
<!-- Creator: CorelDRAW 2018 (64-Bit) -->
<svg xmlns="http://www.w3.org/2000/svg" xml:space="preserve" width="810px" height="810px" version="1.1" shape-rendering="geometricPrecision" text-rendering="geometricPrecision" image-rendering="optimizeQuality" fill-rule="evenodd" clip-rule="evenodd"
viewBox="0 0 810 810"
 xmlns:xlink="http://www.w3.org/1999/xlink">
 <g id="Слой_x0020_1">
  <metadata id="CorelCorpID_0Corel-Layer"/>
  <path fill="white" stroke="white" stroke-width="10" stroke-miterlimit="22.9256" d="M5 805l50 0 0 -60 700 0 0 60 50 0 0 -750c-0.245,-27.248 -22.753,-49.752 -50,-50l-700 0.003c-27.833,1.174 -50,21.511 -50,49.997l0 750zm50 -110l0 -180 700 0 0 180 -700 0zm0 -230l0 -180 700 0 0 180 -700 0zm0 -230l0 -180 700 0 0 180 -700 0zm225 -115l250 0c13.808,0 25,11.193 25,25 0,13.807 -11.192,25 -25,25l-250 0c-13.807,0 -25,-11.193 -25,-25 0,-13.807 11.193,-25 25,-25zm0 230l250 0c13.808,0 25,11.193 25,25 0,13.807 -11.192,25 -25,25l-250 0c-13.807,0 -25,-11.193 -25,-25 0,-13.807 11.193,-25 25,-25zm0 230l250 0c13.808,0 25,11.193 25,25 0,13.807 -11.192,25 -25,25l-250 0c-13.807,0 -25,-11.193 -25,-25 0,-13.807 11.193,-25 25,-25z"/>
 </g>
</svg>
