<?xml version="1.0" encoding="UTF-8"?>
<!DOCTYPE svg PUBLIC "-//W3C//DTD SVG 1.1//EN" "http://www.w3.org/Graphics/SVG/1.1/DTD/svg11.dtd">
<!-- Creator: CorelDRAW X8 -->
<svg xmlns="http://www.w3.org/2000/svg" xml:space="preserve" width="350px" height="220px" version="1.1" shape-rendering="geometricPrecision" text-rendering="geometricPrecision" image-rendering="optimizeQuality" fill-rule="evenodd" clip-rule="evenodd"
viewBox="0 0 350 220"
 xmlns:xlink="http://www.w3.org/1999/xlink"
 enable-background="new 0 0 512 512">
 <g id="Слой_x0020_1">
  <metadata id="CorelCorpID_0Corel-Layer"/>
  <g id="_1044592448">
   <g>
    <g>
     <path fill="#FFD064" d="M243 183l-173 0c-5,0 -9,-4 -9,-9l0 -121c0,-5 4,-9 9,-9l173 0c5,0 9,4 9,9l0 121c0,5 -4,9 -9,9l0 0z"/>
    </g>
    <g>
     <path fill="#FFC250" d="M242 44l-5 0 0 115c0,5 -4,9 -10,9l-166 0 0 6c0,5 4,9 9,9l172 0c6,0 10,-4 10,-9l0 -121c0,-5 -4,-9 -10,-9l0 0z"/>
    </g>
    <g>
     <path fill="#FFE07D" d="M156 75l-95 102c2,3 5,6 9,6l104 0c1,0 1,0 2,1l16 28c2,3 6,3 8,0l16 -28c0,-1 1,-1 2,-1l24 0c4,0 8,-3 9,-6l-95 -102z"/>
    </g>
    <g>
     <path fill="#FFC250" d="M163 143l88 -94c-2,-3 -5,-5 -9,-5l-172 0c-4,0 -7,2 -8,5l88 94c3,4 9,4 13,0l0 0z"/>
    </g>
    <g>
     <path fill="#EBB044" d="M242 44l-7 0 -89 95 4 4c3,4 9,4 13,0l88 -94c-2,-3 -5,-5 -9,-5l0 0z"/>
    </g>
    <g>
     <g>
      <circle fill="#ECF4FF" cx="253" cy="40" r="35"/>
     </g>
     <g>
      <path fill="#DDEAFB" d="M271 9c3,6 4,12 4,18 0,20 -15,36 -35,36 -6,0 -12,-2 -18,-5 6,10 18,17 31,17 19,0 35,-16 35,-35 0,-13 -7,-24 -17,-31l0 0z"/>
     </g>
    </g>
    <g>
     <path fill="#FFD064" d="M236 161c-1,4 -4,7 -9,7l-17 0c-1,0 -2,0 -2,1l-8 14c-2,3 -6,3 -8,0l-8 -14c-1,-1 -1,-1 -2,-1l-112 0 -9 9c2,3 5,6 9,6l104 0c1,0 1,0 2,1l16 28c2,3 6,3 8,0l16 -28c0,-1 1,-1 2,-1l24 0c4,0 8,-3 9,-6l-15 -16z"/>
    </g>
    <g>
     <path fill="black" d="M291 40c0,-2 -1,-4 -3,-4 -2,0 -4,2 -4,4 0,17 -14,31 -31,31 -18,0 -32,-14 -32,-31 0,-18 14,-32 32,-32 12,0 23,7 28,18 1,1 3,2 5,1 1,-1 2,-3 1,-5 -6,-13 -20,-21 -34,-21 -22,0 -39,17 -39,39 0,0 0,0 0,1l-93 0c-2,0 -3,1 -3,3 0,2 1,3 3,3l94 0c1,9 6,16 12,22l-67 72c-1,1 -2,1 -4,1 -1,0 -3,0 -4,-1l-86 -92c1,-1 3,-2 4,-2l34 0c2,0 4,-1 4,-3 0,-2 -2,-3 -4,-3l-34 0c-7,0 -13,5 -13,12l0 121c0,6 6,12 13,12l103 0 16 27c1,3 4,4 7,4l0 0c3,0 5,-1 7,-4l16 -27 23 0c7,0 13,-6 13,-12l0 -96c20,-1 36,-18 36,-38l0 0zm-174 73l-53 56 0 -112 53 56zm125 66l-24 0c-2,0 -4,1 -5,3l-16 28c0,1 -1,1 -1,1 0,0 -1,0 -1,-1l-16 -28c-1,-2 -3,-3 -5,-3l-104 0c-2,0 -3,-1 -4,-2l55 -59 26 27c2,3 6,4 9,4 4,0 7,-1 9,-4l26 -27 29 30c1,2 3,2 5,1 1,-2 1,-4 0,-5l-29 -31 37 -40c5,3 10,4 15,5l0 91 -12 -13c-1,-2 -4,-2 -5,-1 -1,2 -1,4 0,5l16 17c-1,1 -3,2 -5,2l0 0z"/>
     <path fill="black" d="M253 61c2,0 4,-2 4,-4l0 -31c0,-2 -2,-3 -4,-3l-6 0c-2,0 -4,1 -4,3 0,2 2,3 4,3l3 0 0 28c0,2 1,4 3,4l0 0z"/>
    </g>
   </g>
  </g>
 </g>
</svg>
