<?xml version="1.0" encoding="UTF-8"?>
<!DOCTYPE svg PUBLIC "-//W3C//DTD SVG 1.1//EN" "http://www.w3.org/Graphics/SVG/1.1/DTD/svg11.dtd">
<!-- Creator: CorelDRAW X8 -->
<svg xmlns="http://www.w3.org/2000/svg" xml:space="preserve" width="350px" height="220px" version="1.1" shape-rendering="geometricPrecision" text-rendering="geometricPrecision" image-rendering="optimizeQuality" fill-rule="evenodd" clip-rule="evenodd"
viewBox="0 0 350 220"
 xmlns:xlink="http://www.w3.org/1999/xlink"
 enable-background="new 0 0 511.741 511.741">
 <g id="Слой_x0020_1">
  <metadata id="CorelCorpID_0Corel-Layer"/>
  <g id="_808522640">
   <g>
    <path fill="#D9E7EC" d="M177 175l-138 0c-1,0 -2,1 -3,3l-9 29c-1,2 1,4 3,4l156 0c2,0 4,-2 3,-4l-9 -29c0,-2 -2,-3 -3,-3l0 0z"/>
   </g>
   <g>
    <path fill="#C5D3DD" d="M186 211l-8 0c2,0 3,-2 3,-4l-10 -29c0,-2 -1,-3 -3,-3l9 0c1,0 3,1 3,3l9 29c1,2 -1,4 -3,4l0 0z"/>
   </g>
   <g>
    <g>
     <path fill="#C5D3DD" d="M125 131l-34 0c0,0 -1,21 -3,28l40 0c-2,-7 -3,-28 -3,-28z"/>
    </g>
    <g>
     <path fill="#B6C4CF" d="M126 139l-36 0c1,-4 1,-8 1,-8l34 0c0,0 0,4 1,8l0 0z"/>
    </g>
    <g>
     <path fill="#596C76" d="M188 131l-160 0c-5,0 -9,-4 -9,-9l0 -102c0,-5 4,-9 9,-9l160 0c5,0 9,4 9,9l0 102c0,5 -4,9 -9,9l0 0z"/>
    </g>
    <g>
     <path fill="#465A61" d="M197 20l0 102c0,5 -4,9 -9,9l-8 0c5,0 9,-4 9,-9l0 -102c0,-5 -4,-9 -9,-9l8 0c5,0 9,4 9,9z"/>
    </g>
    <g>
     <path fill="#D9E7EC" d="M188 131l-160 0c-5,0 -9,-4 -9,-9l0 -14 178 0 0 14c0,5 -4,9 -9,9l0 0z"/>
    </g>
    <g>
     <path fill="#C5D3DD" d="M197 108l0 14c0,5 -4,9 -9,9l-8 0c5,0 9,-4 9,-9l0 -14 8 0z"/>
    </g>
    <g>
     <path fill="#C8EFFE" d="M183 108l-150 0 0 -80c0,-2 2,-3 4,-3l142 0c2,0 4,1 4,3l0 80 0 0z"/>
    </g>
    <g>
     <path fill="#99E6FC" d="M183 28l0 80 -8 0 0 -80c0,-2 -2,-3 -4,-3l8 0c2,0 4,1 4,3l0 0z"/>
    </g>
    <path fill="black" d="M102 123l12 0c2,0 3,-1 3,-3 0,-2 -1,-3 -3,-3l-12 0c-2,0 -3,1 -3,3 0,2 1,3 3,3z"/>
   </g>
   <g>
    <path fill="black" d="M94 46c-1,-1 -3,-1 -4,0l-31 37c-1,1 -1,3 0,4 1,1 1,1 2,1 1,0 2,0 2,-1l32 -37c1,-1 1,-3 -1,-4l0 0z"/>
    <path fill="black" d="M59 68c1,0 1,1 2,1 1,0 2,-1 2,-1l9 -10c1,-1 1,-3 -1,-4 -1,-1 -3,-1 -4,0l-8 10c-1,1 -1,3 0,4z"/>
    <path fill="black" d="M183 177c-1,-3 -3,-5 -6,-5l-102 0c-2,0 -3,2 -3,3 0,2 1,3 3,3l102 0c0,0 0,0 0,0l9 30c0,0 0,0 0,0 0,0 0,0 0,0l-156 0c0,0 0,0 0,0 0,0 0,0 0,0l9 -30c0,0 0,0 0,0l22 0c2,0 3,-1 3,-3 0,-1 -1,-3 -3,-3l-22 0c-2,0 -5,2 -6,5l-9 29c-1,2 0,4 1,6 1,1 3,2 5,2l156 0c2,0 4,-1 5,-2 1,-2 2,-4 1,-6l-9 -29z"/>
    <path fill="black" d="M188 8l-160 0c-6,0 -12,5 -12,12l0 102c0,7 6,12 12,12l60 0c-1,7 -1,17 -2,22l-13 0c-2,0 -3,2 -3,3 0,2 1,3 3,3l71 0c1,0 3,-1 3,-3 0,-1 -2,-3 -3,-3l-13 0c-2,-5 -2,-15 -2,-22l59 0c6,0 12,-5 12,-12l0 -102c0,-7 -6,-12 -12,-12l0 0zm-96 148c1,-7 2,-17 2,-22l28 0c1,5 1,15 2,22l-32 0zm102 -34c0,4 -3,6 -6,6l-160 0c-3,0 -6,-2 -6,-6l0 -11 172 0 0 11 0 0zm0 -17l-8 0 0 -44c0,-2 -1,-3 -3,-3 -2,0 -3,1 -3,3l0 44 -144 0 0 -77c0,0 1,0 1,0l142 0c1,0 1,0 1,0l0 19c0,2 1,3 3,3 2,0 3,-1 3,-3l0 -19c0,-3 -3,-6 -7,-6l-142 0c-4,0 -7,3 -7,6l0 77 -8 0 0 -85c0,-3 3,-6 6,-6l160 0c3,0 6,3 6,6l0 85z"/>
    <path fill="black" d="M61 185l-4 0c-2,0 -3,1 -3,3 0,1 1,3 3,3l4 0c2,0 3,-2 3,-3 0,-2 -1,-3 -3,-3z"/>
    <path fill="black" d="M73 191l5 0c1,0 3,-2 3,-3 0,-2 -2,-3 -3,-3l-5 0c-1,0 -3,1 -3,3 0,1 2,3 3,3z"/>
    <path fill="black" d="M90 191l4 0c2,0 3,-2 3,-3 0,-2 -1,-3 -3,-3l-4 0c-2,0 -3,1 -3,3 0,1 1,3 3,3z"/>
    <path fill="black" d="M106 191l4 0c2,0 3,-2 3,-3 0,-2 -1,-3 -3,-3l-4 0c-1,0 -3,1 -3,3 0,1 2,3 3,3z"/>
    <path fill="black" d="M123 191l4 0c1,0 3,-2 3,-3 0,-2 -2,-3 -3,-3l-4 0c-2,0 -3,1 -3,3 0,1 1,3 3,3z"/>
    <path fill="black" d="M139 191l4 0c2,0 3,-2 3,-3 0,-2 -1,-3 -3,-3l-4 0c-2,0 -3,1 -3,3 0,1 1,3 3,3z"/>
    <path fill="black" d="M155 191l4 0c2,0 3,-2 3,-3 0,-2 -1,-3 -3,-3l-4 0c-2,0 -3,1 -3,3 0,1 1,3 3,3z"/>
    <path fill="black" d="M61 196l-4 0c-2,0 -3,1 -3,3 0,1 1,3 3,3l4 0c2,0 3,-2 3,-3 0,-2 -1,-3 -3,-3z"/>
    <path fill="black" d="M73 202l5 0c1,0 3,-2 3,-3 0,-2 -2,-3 -3,-3l-5 0c-1,0 -3,1 -3,3 0,1 2,3 3,3z"/>
    <path fill="black" d="M90 202l4 0c2,0 3,-2 3,-3 0,-2 -1,-3 -3,-3l-4 0c-2,0 -3,1 -3,3 0,1 1,3 3,3z"/>
    <path fill="black" d="M106 202l4 0c2,0 3,-2 3,-3 0,-2 -1,-3 -3,-3l-4 0c-1,0 -3,1 -3,3 0,1 2,3 3,3z"/>
    <path fill="black" d="M123 202l4 0c1,0 3,-2 3,-3 0,-2 -2,-3 -3,-3l-4 0c-2,0 -3,1 -3,3 0,1 1,3 3,3z"/>
    <path fill="black" d="M139 202l4 0c2,0 3,-2 3,-3 0,-2 -1,-3 -3,-3l-4 0c-2,0 -3,1 -3,3 0,1 1,3 3,3z"/>
    <path fill="black" d="M155 202l4 0c2,0 3,-2 3,-3 0,-2 -1,-3 -3,-3l-4 0c-2,0 -3,1 -3,3 0,1 1,3 3,3z"/>
   </g>
  </g>
  <g id="_808992352">
   <polygon fill="#06F5DD" points="334,56 334,152 318,160 318,47 "/>
   <polygon fill="#8CFFF3" points="326,47 326,160 257,152 257,56 "/>
   <g>
    <path fill="#BFBFBF" d="M326 152l-8 25 8 0c5,0 8,-4 8,-8l0 -17 -8 0z"/>
    <path fill="#BFBFBF" d="M326 39l-8 0 8 17 8 0 0 -9c0,-4 -3,-8 -8,-8z"/>
   </g>
   <g>
    <path fill="#DBDBDB" d="M326 152l0 17c0,4 -4,8 -8,8l-53 0c-4,0 -8,-4 -8,-8l0 -17 69 0z"/>
    <path fill="#DBDBDB" d="M326 47l0 9 -69 0 0 -9c0,-4 4,-8 8,-8l53 0c4,0 8,4 8,8z"/>
   </g>
   <circle fill="white" cx="296" cy="164" r="4"/>
   <path fill="black" d="M326 37l-61 0c-6,0 -10,5 -10,10l0 122c0,5 4,10 10,10l61 0c6,0 11,-5 11,-10l0 -122c0,-5 -5,-10 -11,-10zm-61 4l61 0c4,0 6,3 6,6l0 7 -73 0 0 -7c0,-3 3,-6 6,-6zm61 134l-61 0c-3,0 -6,-3 -6,-6l0 -15 6 0c1,0 2,-1 2,-2 0,-1 -1,-2 -2,-2l-6 0 0 -92 73 0 0 92 -59 0c-1,0 -2,1 -2,2 0,1 1,2 2,2l59 0 0 15c0,3 -2,6 -6,6z"/>
   <path fill="black" d="M296 49l8 0c1,0 2,-1 2,-2 0,-1 -1,-2 -2,-2l-8 0c-2,0 -2,1 -2,2 0,1 0,2 2,2z"/>
   <path fill="black" d="M296 158c-4,0 -7,3 -7,6 0,4 3,7 7,7 3,0 6,-3 6,-7 0,-3 -3,-6 -6,-6zm0 8c-2,0 -2,0 -2,-2 0,-1 0,-2 2,-2 1,0 2,1 2,2 0,2 -1,2 -2,2z"/>
   <circle fill="black" cx="287" cy="47" r="2"/>
   <g>
   </g>
   <g>
   </g>
   <g>
   </g>
   <g>
   </g>
   <g>
   </g>
   <g>
   </g>
   <g>
   </g>
   <g>
   </g>
   <g>
   </g>
   <g>
   </g>
   <g>
   </g>
   <g>
   </g>
   <g>
   </g>
   <g>
   </g>
   <g>
   </g>
  </g>
  <path fill="green" stroke="green" stroke-width="0.999987" d="M266 136l3 0 0 -5 54 0 0 5 4 0 0 -58c0,-2 -2,-4 -4,-4l-54 0c-2,0 -3,2 -3,4l0 58zm3 -9l0 -14 54 0 0 14 -54 0zm0 -18l0 -13 54 0 0 13 -54 0zm0 -17l0 -14 54 0 0 14 -54 0zm18 -9l19 0c1,0 2,1 2,2 0,1 -1,2 -2,2l-19 0c-1,0 -2,-1 -2,-2 0,-1 1,-2 2,-2zm0 18l19 0c1,0 2,0 2,1 0,2 -1,2 -2,2l-19 0c-1,0 -2,0 -2,-2 0,-1 1,-1 2,-1zm0 17l19 0c1,0 2,1 2,2 0,1 -1,2 -2,2l-19 0c-1,0 -2,-1 -2,-2 0,-1 1,-2 2,-2z"/>
  <rect fill="#C8EFFE" x="41" y="32" width="129.2" height="70.8"/>
  <path fill="green" stroke="green" stroke-width="0.999987" d="M79 99l4 0 0 -4 54 0 0 4 4 0 0 -57c0,-3 -2,-4 -4,-4l-54 0c-2,0 -4,1 -4,4l0 57zm4 -8l0 -14 54 0 0 14 -54 0zm0 -18l0 -14 54 0 0 14 -54 0zm0 -18l0 -13 54 0 0 13 -54 0zm17 -8l20 0c1,0 2,0 2,1 0,2 -1,2 -2,2l-20 0c-1,0 -2,0 -2,-2 0,-1 1,-1 2,-1zm0 17l20 0c1,0 2,1 2,2 0,1 -1,2 -2,2l-20 0c-1,0 -2,-1 -2,-2 0,-1 1,-2 2,-2zm0 18l20 0c1,0 2,1 2,2 0,1 -1,2 -2,2l-20 0c-1,0 -2,-1 -2,-2 0,-1 1,-2 2,-2z"/>
  <g id="_929925760">
  </g>
  <g id="_929926016">
  </g>
  <g id="_929926976">
  </g>
  <g id="_929924384">
  </g>
  <g id="_929929280">
  </g>
  <g id="_929923872">
  </g>
  <g id="_929922144">
  </g>
  <g id="_929927520">
  </g>
  <g id="_929927584">
  </g>
  <g id="_929926784">
  </g>
  <g id="_929924160">
  </g>
  <g id="_929921152">
  </g>
  <g id="_929920640">
  </g>
  <g id="_929920160">
  </g>
  <g id="_929924064">
  </g>
  <g id="_929935488">
   <g>
    <path fill="black" d="M208 106l13 0 11 0 13 0c3,0 5,-2 5,-5 0,-3 -2,-6 -5,-6l-13 0 -11 0 -13 0c-3,0 -5,3 -5,6 0,3 2,5 5,5z"/>
    <path fill="black" d="M245 113l-13 0 -11 0 -13 0c-3,0 -5,3 -5,6 0,3 2,5 5,5l13 0 11 0 13 0c3,0 5,-2 5,-5 0,-3 -2,-6 -5,-6z"/>
   </g>
   <g>
   </g>
   <g>
   </g>
   <g>
   </g>
   <g>
   </g>
   <g>
   </g>
   <g>
   </g>
   <g>
   </g>
   <g>
   </g>
   <g>
   </g>
   <g>
   </g>
   <g>
   </g>
   <g>
   </g>
   <g>
   </g>
   <g>
   </g>
   <g>
   </g>
  </g>
 </g>
</svg>
