<svg id="Capa_1" enable-background="new 0 0 512 512" height="512" viewBox="0 0 512 512" width="512" xmlns="http://www.w3.org/2000/svg"><g><path d="m498.51 324.895v-305.824c0-8.616-7.01-15.626-15.626-15.626h-53.29c-8.616 0-15.626 7.01-15.626 15.626v305.661h-77.95c-3.074-10.333-12.323-18.15-23.548-18.946 0 0 0 0-.001 0l-48.969-3.468v-15.231h117.23c8.616 0 15.626-7.01 15.626-15.626v-164.104c0-8.616-7.01-15.626-15.626-15.626h-249.46c-8.616 0-15.626 7.01-15.626 15.626v164.103c0 8.616 7.01 15.626 15.626 15.626h117.23v15.231l-48.97 3.468c-11.225.795-20.474 8.613-23.548 18.946h-77.95v-305.66c0-8.616-7.01-15.626-15.626-15.626h-53.29c-8.616 0-15.626 7.01-15.626 15.626v305.824c-7.607 1.047-13.49 7.572-13.49 15.462v152.572c0 8.616 7.01 15.626 15.626 15.626h480.748c8.616 0 15.626-7.01 15.626-15.626v-152.572c0-7.89-5.883-14.415-13.49-15.462zm-367.866-53.435v-12.928h198.964c4.143 0 7.5-3.358 7.5-7.5s-3.357-7.5-7.5-7.5h-198.964v-136.175c0-.345.281-.626.626-.626h249.46c.345 0 .626.281.626.626v136.176h-20.934c-4.143 0-7.5 3.358-7.5 7.5s3.357 7.5 7.5 7.5h20.934v12.928c0 .345-.281.626-.626.626h-249.46c-.345-.001-.626-.282-.626-.627zm132.856 173.056h109.25v49.04h-109.25zm-15 49.039h-109.25v-49.04h109.25zm-109.25-64.039v-89.785h233.5v89.785zm248.5-35.172h65.849c4.143 0 7.5-3.358 7.5-7.5s-3.357-7.5-7.5-7.5h-65.849v-39.613h108.624c.345 0 .626.281.626.626v38.987h-13.49c-4.143 0-7.5 3.358-7.5 7.5s3.357 7.5 7.5 7.5h13.49v35.172h-109.25zm95.76-230.256h-54.542v-65.322h54.542zm-54.542 15h54.542v65.321h-54.542zm.626-160.643h53.29c.345 0 .626.281.626.626v64.696h-54.542v-64.696c0-.346.281-.626.626-.626zm-.626 240.964h54.542v65.322h-54.542zm-228.377 61.339 55.409-3.924 55.409 3.924c3.16.224 5.959 1.729 7.901 3.983h-126.621c1.942-2.254 4.742-3.759 7.902-3.983zm-117.559-76.339h-54.542v-65.321h54.542zm0-80.321h-54.542v-65.322h54.542zm-54.542 95.321h54.542v65.322h-54.542zm.626-240.964h53.29c.345 0 .626.281.626.626v64.696h-54.542v-64.696c0-.346.281-.626.626-.626zm-14.116 474.484v-48.413h17.351c4.143 0 7.5-3.358 7.5-7.5s-3.357-7.5-7.5-7.5h-17.351v-89.159c0-.345.281-.626.626-.626h108.624v89.785h-61.926c-4.143 0-7.5 3.358-7.5 7.5s3.357 7.5 7.5 7.5h61.926v49.04h-108.624c-.345-.001-.626-.282-.626-.627zm481.374.626h-108.624v-49.04h109.25v48.413c0 .346-.281.627-.626.627z"/><path d="m77.244 456.149h-16.488c-4.143 0-7.5 3.358-7.5 7.5s3.357 7.5 7.5 7.5h16.488c4.143 0 7.5-3.358 7.5-7.5s-3.357-7.5-7.5-7.5z"/><path d="m185.631 471.149h16.488c4.143 0 7.5-3.358 7.5-7.5s-3.357-7.5-7.5-7.5h-16.488c-4.143 0-7.5 3.358-7.5 7.5s3.357 7.5 7.5 7.5z"/><path d="m326.369 456.149h-16.488c-4.143 0-7.5 3.358-7.5 7.5s3.357 7.5 7.5 7.5h16.488c4.143 0 7.5-3.358 7.5-7.5s-3.357-7.5-7.5-7.5z"/><path d="m450.619 456.149h-16.488c-4.143 0-7.5 3.358-7.5 7.5s3.357 7.5 7.5 7.5h16.488c4.143 0 7.5-3.358 7.5-7.5s-3.357-7.5-7.5-7.5z"/><path d="m111.642 407.563v-47.955c0-4.142-3.357-7.5-7.5-7.5h-68.649c-4.143 0-7.5 3.358-7.5 7.5v47.955c0 4.142 3.357 7.5 7.5 7.5h68.648c4.143 0 7.501-3.358 7.501-7.5zm-15-7.5h-53.649v-32.955h53.648v32.955z"/></g></svg>