<svg id="Capa_1" enable-background="new 0 0 512 512" height="512" viewBox="0 0 512 512" width="512" xmlns="http://www.w3.org/2000/svg"><g><g><g><g><g><path d="m90.532 332.229h-69.542v-313.161c0-4.488 3.638-8.126 8.126-8.126h53.29c4.488 0 8.126 3.638 8.126 8.126z" fill="#f7d4ad"/></g></g><g><g><path d="m491.01 332.229h-69.542v-313.161c0-4.488 3.638-8.126 8.126-8.126h53.29c4.488 0 8.126 3.638 8.126 8.126z" fill="#f7d4ad"/></g></g></g><g><path d="m388.86 107.352v164.11c0 4.48-3.64 8.12-8.13 8.12h-249.46c-4.49 0-8.13-3.64-8.13-8.12v-164.11c0-4.49 3.64-8.12 8.13-8.12h249.46c4.49 0 8.13 3.63 8.13 8.12z" fill="#5d5260"/></g><g><path d="m496.37 332.232h-480.74c-4.49 0-8.13 3.63-8.13 8.12v152.57c0 4.49 3.64 8.13 8.13 8.13h480.74c4.49 0 8.13-3.64 8.13-8.13v-152.57c0-4.49-3.64-8.12-8.13-8.12zm-116.12 100.49c0 2.37-1.82 4.29-4.06 4.29h-240.38c-2.24 0-4.06-1.92-4.06-4.29v-96.21c0-2.36 1.82-4.28 4.06-4.28h240.38c2.24 0 4.06 1.92 4.06 4.28z" fill="#ecbd83"/></g><g><path d="m311.939 313.264-55.939-3.961-55.939 3.961c-9.954.705-17.669 8.986-17.669 18.964h147.216c0-9.978-7.715-18.259-17.669-18.964z" fill="#c7c5c9"/></g><g><path d="m388.86 251.032v20.43c0 4.48-3.64 8.12-8.13 8.12h-249.46c-4.49 0-8.13-3.64-8.13-8.12v-20.43z" fill="#4b3f4e"/></g><g><path d="m100.395 407.561h-61.156c-2.069 0-3.746-1.677-3.746-3.746v-40.463c0-2.069 1.677-3.746 3.746-3.746h61.157c2.069 0 3.746 1.677 3.746 3.746v40.463c-.001 2.069-1.678 3.746-3.747 3.746z" fill="#916767"/></g></g><g><path d="m498.51 324.892v-305.824c0-8.616-7.01-15.626-15.626-15.626h-53.29c-8.616 0-15.626 7.01-15.626 15.626v305.661h-77.95c-3.074-10.333-12.323-18.15-23.548-18.946 0 0 0 0-.001 0l-48.969-3.468v-15.231h117.23c8.616 0 15.626-7.01 15.626-15.626v-164.104c0-8.616-7.01-15.626-15.626-15.626h-249.46c-8.616 0-15.626 7.01-15.626 15.626v164.104c0 8.616 7.01 15.626 15.626 15.626h117.23v15.231l-48.97 3.468c-11.225.795-20.474 8.613-23.548 18.946h-77.95v-305.661c0-8.616-7.01-15.626-15.626-15.626h-53.29c-8.616 0-15.626 7.01-15.626 15.626v305.824c-7.607 1.047-13.49 7.573-13.49 15.462v152.572c0 8.616 7.01 15.626 15.626 15.626h116.018c.036 0 .07.005.106.005s.071-.005.106-.005h124.037c.036 0 .07.005.106.005s.071-.005.106-.005h124.037c.036 0 .07.005.106.005s.071-.005.106-.005h116.018c8.616 0 15.626-7.01 15.626-15.626v-152.572c.002-7.889-5.881-14.415-13.488-15.462zm-367.866-53.434v-12.928h198.964c4.143 0 7.5-3.358 7.5-7.5s-3.357-7.5-7.5-7.5h-198.964v-136.176c0-.345.281-.626.626-.626h249.46c.345 0 .626.281.626.626v136.176h-20.934c-4.143 0-7.5 3.358-7.5 7.5s3.357 7.5 7.5 7.5h20.934v12.928c0 .345-.281.626-.626.626h-249.46c-.345-.001-.626-.281-.626-.626zm132.856 173.055h109.25v49.04h-109.25zm-15 49.04h-109.25v-49.04h109.25zm-109.25-64.04v-89.785h233.5v89.785zm248.5-35.172h65.849c4.143 0 7.5-3.358 7.5-7.5s-3.357-7.5-7.5-7.5h-65.849v-39.613h108.624c.345 0 .626.281.626.626v38.987h-13.49c-4.143 0-7.5 3.358-7.5 7.5s3.357 7.5 7.5 7.5h13.49v35.172h-109.25zm95.76-230.256h-54.542v-65.321h54.542zm-54.542 15h54.542v65.321h-54.542zm.626-160.643h53.29c.345 0 .626.281.626.626v64.696h-54.542v-64.696c0-.345.281-.626.626-.626zm-.626 240.965h54.542v65.322h-54.542zm-228.377 61.339 55.409-3.925 55.409 3.924c3.16.224 5.959 1.729 7.901 3.983h-126.621c1.942-2.253 4.742-3.759 7.902-3.982zm-117.559-76.339h-54.542v-65.321h54.542zm0-80.322h-54.542v-65.321h54.542zm-54.542 95.322h54.542v65.322h-54.542zm.626-240.965h53.29c.345 0 .626.281.626.626v64.696h-54.542v-64.696c0-.345.281-.626.626-.626zm-14.116 474.484v-48.413h17.351c4.143 0 7.5-3.358 7.5-7.5s-3.357-7.5-7.5-7.5h-17.351v-89.159c0-.345.281-.626.626-.626h108.624v89.785h-61.926c-4.143 0-7.5 3.358-7.5 7.5s3.357 7.5 7.5 7.5h61.926v49.04h-108.624c-.345 0-.626-.282-.626-.627zm481.374.627h-108.624v-49.04h109.25v48.413c0 .345-.281.627-.626.627z"/><path d="m77.244 456.146h-16.488c-4.143 0-7.5 3.358-7.5 7.5s3.357 7.5 7.5 7.5h16.488c4.143 0 7.5-3.358 7.5-7.5s-3.357-7.5-7.5-7.5z"/><path d="m185.631 471.146h16.488c4.143 0 7.5-3.358 7.5-7.5s-3.357-7.5-7.5-7.5h-16.488c-4.143 0-7.5 3.358-7.5 7.5s3.357 7.5 7.5 7.5z"/><path d="m326.369 456.146h-16.488c-4.143 0-7.5 3.358-7.5 7.5s3.357 7.5 7.5 7.5h16.488c4.143 0 7.5-3.358 7.5-7.5s-3.357-7.5-7.5-7.5z"/><path d="m450.619 456.146h-16.488c-4.143 0-7.5 3.358-7.5 7.5s3.357 7.5 7.5 7.5h16.488c4.143 0 7.5-3.358 7.5-7.5s-3.357-7.5-7.5-7.5z"/><path d="m111.642 407.561v-47.955c0-4.142-3.357-7.5-7.5-7.5h-68.649c-4.143 0-7.5 3.358-7.5 7.5v47.955c0 4.142 3.357 7.5 7.5 7.5h68.648c4.143 0 7.501-3.358 7.501-7.5zm-15-7.5h-53.649v-32.955h53.648v32.955z"/></g></g></svg>