<?xml version="1.0" encoding="iso-8859-1"?>
<!-- Generator: Adobe Illustrator 19.0.0, SVG Export Plug-In . SVG Version: 6.00 Build 0)  -->
<svg version="1.1" id="Capa_1" xmlns="http://www.w3.org/2000/svg" xmlns:xlink="http://www.w3.org/1999/xlink" x="0px" y="0px"
	 viewBox="0 0 512.001 512.001" style="enable-background:new 0 0 512.001 512.001;" xml:space="preserve">
<rect x="337.973" y="337.983" style="fill:#FFEFD5;" width="164.002" height="164.002"/>
<rect x="174.011" y="337.983" style="fill:#FEDA9B;" width="164.002" height="164.002"/>
<g>
	<rect x="10.049" y="337.983" style="fill:#FFEFD5;" width="164.002" height="164.002"/>
	<rect x="10.049" y="8.01" style="fill:#FFEFD5;" width="164.002" height="164.002"/>
</g>
<rect x="10.049" y="174.002" style="fill:#FEDA9B;" width="164.002" height="164.002"/>
<rect x="174.011" y="174.002" style="fill:#FFEFD5;" width="164.002" height="164.002"/>
<rect x="51.997" y="275.996" style="fill:#FF5D5D;" width="79.996" height="61.99"/>
<rect x="39.998" y="227.999" style="fill:#FFB9B7;" width="103.995" height="47.998"/>
<path style="fill:#D8FB93;" d="M443.703,261.514c2.837-10.587,4.982-22.972,4.974-36.208c-0.025-38.981-18.722-70.564-18.722-70.564
	s-18.65,31.611-18.625,70.593c0.009,13.226,2.168,25.6,5.017,36.178L443.703,261.514L443.703,261.514z"/>
<g>
	<path style="fill:#A0E557;" d="M437.832,261.514h35.333c2.374-2.849,4.679-5.878,6.859-9.088
		C499.907,223.157,502,189.908,502,189.908s-31.74,16.851-51.624,46.121"/>
	<path style="fill:#A0E557;" d="M409.794,235.473c-19.884-29.271-51.787-45.567-51.787-45.567s2.093,33.25,21.976,62.519
		c2.181,3.21,4.485,6.239,6.859,9.088h35.333"/>
</g>
<polygon style="fill:#6A80FF;" points="477.763,261.514 382.245,261.514 394.002,337.988 466.004,337.988 "/>
<path style="fill:#A0E557;" d="M277.107,501.988h-19.044c-5.797,0-10.496-4.7-10.496-10.496V392.49
	c0-5.797,4.7-10.496,10.496-10.496h19.044c5.797,0,10.496,4.7,10.496,10.496v99.001
	C287.603,497.288,282.904,501.988,277.107,501.988z"/>
<path style="fill:#4DBAF6;" d="M237.07,501.988h-19.299c-5.797,0-10.496-4.7-10.496-10.496v-67.178
	c0-5.797,4.7-10.496,10.496-10.496h19.299c5.797,0,10.496,4.7,10.496,10.496v67.178C247.566,497.288,242.867,501.988,237.07,501.988
	z"/>
<path style="fill:#99BBFF;" d="M327.49,501.988H298.1c-5.797,0-10.496-4.7-10.496-10.496V392.49c0-5.797,4.7-10.496,10.496-10.496
	h29.391c5.797,0,10.496,4.7,10.496,10.496v99.001C337.987,497.288,333.287,501.988,327.49,501.988z"/>
<path style="fill:#FFB954;" d="M135.483,174.128v-33.052c0-12.724-4.658-25.009-13.094-34.534l0,0
	c-8.437-9.526-13.094-21.81-13.094-34.534V47.011H74.706v24.996c0,12.724-4.658,25.009-13.094,34.534l0,0
	c-8.437,9.526-13.094,21.81-13.094,34.534v33.052H135.483z"/>
<path style="fill:#FF5D5D;" d="M10.025,441.108v-19.299c0-5.797,4.7-10.496,10.496-10.496H87.7c5.797,0,10.496,4.7,10.496,10.496
	v19.299c0,5.797-4.7,10.496-10.496,10.496H20.522C14.725,451.604,10.025,446.905,10.025,441.108z"/>
<path style="fill:#FFC66C;" d="M10.025,491.491v-29.391c0-5.797,4.7-10.496,10.496-10.496h99.001c5.797,0,10.496,4.7,10.496,10.496
	v29.391c0,5.797-4.7,10.496-10.496,10.496H20.522C14.725,501.988,10.025,497.288,10.025,491.491z"/>
<path d="M501.975,327.989h-24.316l9.987-64.956c0.198-1.287,0.127-2.581-0.166-3.82c0.271-0.39,0.55-0.778,0.816-1.169
	c21.177-31.172,23.592-66.042,23.685-67.511c0.227-3.614-1.517-7.069-4.561-9.032c-3.044-1.963-6.911-2.129-10.109-0.428
	c-1.068,0.566-20.769,11.17-39.379,30.163c-3.538-34.451-18.648-60.367-19.372-61.591c-1.8-3.041-5.072-4.906-8.605-4.906
	c-0.002,0-0.005,0-0.007,0c-3.537,0.003-6.809,1.873-8.605,4.919c-0.719,1.218-15.618,26.847-19.227,60.995
	c-18.68-18.839-38.486-29.105-39.559-29.654c-3.2-1.635-7.031-1.428-10.035,0.545c-3.004,1.971-4.72,5.402-4.495,8.988
	c0.093,1.47,2.508,36.338,23.685,67.511c0.265,0.391,0.544,0.779,0.816,1.169c-0.293,1.239-0.364,2.532-0.166,3.82l9.988,64.956
	h-34.362V174.128c0-5.522-4.477-9.999-9.999-9.999h-42.31c-5.523,0-9.999,4.478-9.999,9.999c0,5.522,4.477,9.999,9.999,9.999h32.31
	v143.862H183.998V184.127h27.685c5.523,0,9.999-4.478,9.999-9.999c0-5.522-4.477-9.999-9.999-9.999h-27.685V10.013
	c0-5.522-4.477-9.999-9.999-9.999H9.999C4.477,0.013,0,4.491,0,10.013v164.115v0.138v327.722c0,5.522,4.477,9.999,9.999,9.999
	h491.975c5.523,0,9.999-4.478,9.999-9.999v-164C511.974,332.466,507.497,327.989,501.975,327.989z M487.764,211.455
	c-2.947,10.511-7.866,23.362-16.012,35.352c-1.073,1.579-2.208,3.152-3.396,4.707h-12.162c0.526-2.849,0.971-5.685,1.329-8.505
	c0.406-0.416,0.786-0.866,1.124-1.363C467.238,229,478.376,218.757,487.764,211.455z M429.989,179.022
	c4.335,11.872,8.678,28.261,8.689,46.29c0.005,8.475-0.952,17.258-2.852,26.202h-11.611c-1.911-8.937-2.879-17.716-2.885-26.186
	C421.318,207.373,425.66,190.939,429.989,179.022z M401.523,241.093c0.269,0.396,0.568,0.756,0.88,1.1
	c0.378,3.09,0.858,6.198,1.438,9.322h-12.19c-1.188-1.555-2.324-3.128-3.396-4.707c-8.268-12.17-13.211-25.228-16.143-35.821
	C381.575,218.162,392.864,228.347,401.523,241.093z M393.899,271.513h22.448h5.829h15.657h5.872h22.404l-8.684,56.476h-54.843
	L393.899,271.513z M287.603,374.918c-3.075-1.844-6.658-2.925-10.496-2.925h-19.044c-11.301,0-20.496,9.195-20.496,20.496v11.351
	c-0.167-0.004-0.329-0.025-0.497-0.025h-19.299c-11.301,0-20.496,9.195-20.496,20.496v67.179c0,0.168,0.021,0.33,0.025,0.497
	h-13.302v-144h143.978v24.031c-0.163-0.004-0.322-0.025-0.486-0.025h-29.391C294.261,371.994,290.678,373.074,287.603,374.918z
	 M119.523,441.605h-11.352c0.004-0.167,0.025-0.329,0.025-0.497v-19.3c0-11.301-9.195-20.496-20.496-20.496H20.522
	c-0.177,0-0.347,0.022-0.523,0.026v-53.351h143.99v144.001h-23.995c0.004-0.167,0.025-0.329,0.025-0.497V462.1
	C140.019,450.799,130.824,441.605,119.523,441.605z M114.902,113.171c6.824,7.705,10.581,17.614,10.581,27.905v23.053H58.515
	v-23.053c0-10.29,3.758-20.2,10.58-27.904c10.065-11.363,15.609-25.983,15.609-41.164V57.01h14.589v14.997
	C99.294,87.188,104.837,101.807,114.902,113.171z M163.989,184.265v143.724h-21.992v-41.99h2c5.523,0,9.999-4.478,9.999-9.999
	v-47.998c0-5.522-4.477-9.999-9.999-9.999H40.002c-5.523,0-9.999,4.478-9.999,9.999v47.998c0,5.522,4.477,9.999,9.999,9.999h2v41.99
	H19.999V184.265H163.989z M50.001,266v-27.999h83.996V266h-2H52.001H50.001z M62.001,285.999h59.997v41.99H62.001
	C62.001,327.989,62.001,285.999,62.001,285.999z M20.025,441.108v-19.3c0-0.274,0.223-0.497,0.497-0.497H87.7
	c0.274,0,0.497,0.223,0.497,0.497v19.3c0,0.274-0.223,0.497-0.497,0.497H20.522C20.248,441.605,20.025,441.382,20.025,441.108z
	 M163.999,20.012v144.116h-18.516v-23.053c0-15.181-5.543-29.8-15.609-41.165c-6.823-7.703-10.58-17.612-10.58-27.903V47.011
	c0-5.522-4.477-9.999-9.999-9.999H74.705c-5.523,0-9.999,4.478-9.999,9.999v24.997c0,10.29-3.758,20.2-10.581,27.904
	c-10.064,11.364-15.608,25.984-15.608,41.164v23.053H19.999V20.012H163.999z M20.522,491.988c-0.274,0-0.497-0.223-0.497-0.497
	v-29.391c0-0.274,0.223-0.497,0.497-0.497H87.7h31.823c0.274,0,0.497,0.223,0.497,0.497v29.391c0,0.274-0.223,0.497-0.497,0.497
	H20.522z M217.771,491.988c-0.274,0-0.497-0.223-0.497-0.497v-67.179c0-0.274,0.223-0.497,0.497-0.497h19.299
	c0.274,0,0.497,0.223,0.497,0.497v67.179c0,0.274-0.223,0.497-0.497,0.497H217.771z M258.063,491.988
	c-0.274,0-0.497-0.223-0.497-0.497v-67.179V392.49c0-0.274,0.223-0.497,0.497-0.497h19.044c0.274,0,0.497,0.223,0.497,0.497v99.001
	c0,0.274-0.223,0.497-0.497,0.497H258.063z M298.1,491.988c-0.274,0-0.497-0.223-0.497-0.497V392.49
	c0-0.274,0.223-0.497,0.497-0.497h29.391c0.254,0,0.457,0.195,0.486,0.442v99.112c-0.029,0.247-0.232,0.441-0.486,0.441H298.1z
	 M491.975,491.988h-89.969v-66.997c0-5.522-4.477-9.999-9.999-9.999c-5.523,0-10,4.478-10,9.999v66.997h-34.02v-0.497V392.49
	v-44.503h143.989V491.988z"/>
<path d="M256.013,184.132c2.63,0,5.21-1.07,7.07-2.94c1.86-1.859,2.93-4.43,2.93-7.069c0-2.63-1.07-5.21-2.93-7.07
	s-4.44-2.93-7.07-2.93c-2.63,0-5.21,1.069-7.07,2.93c-1.86,1.86-2.93,4.44-2.93,7.07c0,2.64,1.07,5.21,2.93,7.069
	C250.803,183.061,253.383,184.132,256.013,184.132z"/>
<path d="M392.006,374.242c-2.63,0-5.21,1.069-7.07,2.93c-1.86,1.86-2.93,4.44-2.93,7.07s1.07,5.21,2.93,7.069
	c1.86,1.86,4.44,2.931,7.07,2.931c2.63,0,5.21-1.07,7.07-2.931c1.86-1.859,2.93-4.439,2.93-7.069s-1.07-5.21-2.93-7.07
	S394.636,374.242,392.006,374.242z"/>
<g>
</g>
<g>
</g>
<g>
</g>
<g>
</g>
<g>
</g>
<g>
</g>
<g>
</g>
<g>
</g>
<g>
</g>
<g>
</g>
<g>
</g>
<g>
</g>
<g>
</g>
<g>
</g>
<g>
</g>
</svg>
