<svg height="511pt" viewBox="-23 0 511 511.99939" width="511pt" xmlns="http://www.w3.org/2000/svg"><path d="m10.5 359.640625h444.21875v88.890625h-444.21875zm0 0" fill="#dea37d"/><path d="m10.5 448.53125h45.324219v53.46875h-45.324219zm0 0" fill="#f48b93"/><path d="m409.394531 448.53125h45.324219v53.46875h-45.324219zm0 0" fill="#f48b93"/><path d="m85.132812 203.917969h33.84375v155.722656h-33.84375zm0 0" fill="#ffd97d"/><path d="m172.171875 203.917969h33.839844v155.722656h-33.839844zm0 0" fill="#fdf29e"/><path d="m259.207031 203.917969h33.839844v155.722656h-33.839844zm0 0" fill="#ffd97d"/><path d="m346.242188 203.917969h33.84375v155.722656h-33.84375zm0 0" fill="#fdf29e"/><g fill="#f4f4f4"><path d="m118.976562 291.511719h53.195313v68.128906h-53.195313zm0 0"/><path d="m72.414062 291.511719c-14.746093 0-26.703124 11.957031-26.703124 26.703125v41.429687h39.421874v-68.132812zm0 0"/><path d="m392.804688 291.511719h-12.71875v68.128906h39.421874v-41.425781c0-14.746094-11.957031-26.703125-26.703124-26.703125zm0 0"/><path d="m206.011719 291.511719h53.195312v68.128906h-53.195312zm0 0"/><path d="m293.046875 291.511719h53.195313v68.128906h-53.195313zm0 0"/></g><path d="m10.5 150.714844h35.210938v208.925781h-35.210938zm0 0" fill="#f48b93"/><path d="m419.507812 150.714844h35.210938v208.925781h-35.210938zm0 0" fill="#f48b93"/><path d="m407.21875 422.007812c-.660156 0-1.308594-.070312-1.960938-.199218-.640624-.128906-1.269531-.316406-1.867187-.566406-.601563-.25-1.183594-.5625-1.730469-.921876-.539062-.359374-1.050781-.78125-1.519531-1.238281-.460937-.460937-.882813-.980469-1.242187-1.523437-.359376-.539063-.667969-1.128906-.917969-1.726563-.25-.601562-.441407-1.230469-.570313-1.871093-.128906-.652344-.191406-1.300782-.191406-1.949219 0-.660157.0625-1.3125.191406-1.960938.128906-.640625.320313-1.269531.570313-1.871093.25-.597657.558593-1.179688.917969-1.726563.359374-.542969.78125-1.050781 1.242187-1.511719.46875-.472656.976563-.882812 1.519531-1.25.550782-.359375 1.128906-.671875 1.730469-.921875.597656-.25 1.226563-.4375 1.867187-.566406 1.289063-.261719 2.621094-.261719 3.910157 0 .640625.128906 1.273437.316406 1.871093.566406.601563.25 1.179688.5625 1.730469.921875.539063.367188 1.058594.777344 1.519531 1.25.460938.460938.878907.96875 1.238282 1.511719.363281.546875.671875 1.128906.921875 1.726563.25.601562.441406 1.230468.570312 1.871093.128907.648438.199219 1.300781.199219 1.960938 0 .648437-.070312 1.296875-.199219 1.949219-.128906.640624-.320312 1.269531-.570312 1.871093-.25.597657-.558594 1.1875-.921875 1.726563-.359375.542968-.777344 1.0625-1.238282 1.523437-.460937.457031-.980468.878907-1.519531 1.238281-.550781.359376-1.128906.671876-1.730469.921876-.601562.25-1.230468.4375-1.871093.566406-.648438.128906-1.296875.199218-1.949219.199218zm0 0"/><path d="m454.71875 140.714844h-35.210938c-5.523437 0-10 4.480468-10 10v43.203125h-353.796874v-43.203125c0-5.519532-4.476563-10-10-10h-35.210938c-5.523438 0-10 4.480468-10 10v351.285156c0 5.519531 4.476562 10 10 10h45.324219c5.519531 0 10-4.480469 10-10v-43.46875h333.570312v43.46875c0 5.519531 4.476563 10 10 10h45.324219c5.519531 0 10-4.480469 10-10v-351.285156c0-5.519532-4.476562-10-10-10zm-434.21875 297.816406v-16.523438h349.300781c5.523438 0 10-4.480468 10-10 0-5.523437-4.476562-10-10-10h-349.300781v-32.363281h424.21875v68.886719zm35.210938-120.316406c0-9.210938 7.492187-16.703125 16.703124-16.703125h2.71875v48.132812h-19.421874zm106.457031-36.703125h-33.191407v-67.59375h33.191407zm-33.191407 20h33.191407v48.128906h-33.191407zm120.230469-20h-33.195312v-67.59375h33.195312zm-33.195312 20h33.195312v48.128906h-33.195312zm120.234375-20h-33.195313v-67.59375h33.195313zm-33.199219 20h33.195313v48.128906h-33.195313zm87.039063 0h2.71875c9.210937 0 16.703124 7.492187 16.703124 16.703125v31.425781h-19.421874zm39.421874-140.796875h15.210938v188.929687h-15.210938zm-20 124.824218c-5.011718-2.574218-10.691406-4.027343-16.703124-4.027343h-2.71875v-67.59375h19.421874zm-39.421874-71.621093v135.726562h-13.84375v-135.726562zm-87.039063 0v135.726562h-13.839844v-135.726562zm-87.035156 0v135.726562h-13.84375v-135.726562zm-87.035157 0v135.726562h-13.84375v-135.726562zm-33.84375 0v67.59375h-2.71875c-6.011718 0-11.691406 1.453125-16.703124 4.027343v-71.621093zm-54.632812-53.203125h15.210938v188.929687h-15.210938zm25.324219 331.285156h-25.324219v-33.46875h25.324219zm398.894531 0h-25.324219v-33.46875h25.324219zm0 0"/><path d="m188.582031 31.273438c2.410157-7.914063 6.140625-15.0625 10.878907-21.273438-27.585938 1.433594-52.578126 19.832031-61.085938 47.78125-10.859375 35.671875 9.253906 73.390625 44.925781 84.25 27.757813 8.449219 56.757813-1.855469 73.371094-23.652344-7.617187.398438-15.4375-.503906-23.164063-2.851562-35.671874-10.859375-55.785156-48.582032-44.925781-84.253906zm0 0" fill="#ffd97d"/><path d="m202.792969 154.925781c-7.484375 0-15.027344-1.082031-22.402344-3.328125-19.808594-6.027344-36.082031-19.410156-45.824219-37.679687-9.742187-18.269531-11.789062-39.242188-5.757812-59.050781 9.472656-31.121094 37.65625-53.167969 70.132812-54.8554692 3.882813-.1992188 7.546875 1.8750002 9.363282 5.3203122 1.816406 3.445313 1.46875 7.632813-.894532 10.730469-4.136718 5.425781-7.253906 11.523438-9.261718 18.121094-4.472657 14.699218-2.957032 30.261718 4.269531 43.816406 7.230469 13.554688 19.304687 23.484375 34.003906 27.960938 6.441406 1.960937 13.074219 2.777343 19.730469 2.429687 3.878906-.195313 7.542968 1.875 9.363281 5.320313 1.816406 3.445312 1.472656 7.632812-.890625 10.730468-14.867188 19.503906-38.023438 30.484375-61.832031 30.484375zm-22.527344-130.324219c-15.246094 6.585938-27.3125 19.625-32.324219 36.089844-4.472656 14.699219-2.957031 30.257813 4.269532 43.8125 7.230468 13.554688 19.304687 23.484375 34.003906 27.960938 16.261718 4.945312 33.648437 2.296875 47.554687-6.480469-1.058593-.273437-2.117187-.570313-3.171875-.894531-40.890625-12.445313-64.027344-55.839844-51.582031-96.730469.386719-1.265625.804687-2.519531 1.25-3.757813zm8.316406 6.671876h.011719zm0 0"/><path d="m289.925781 13.59375 13.652344 23.125 26.210937 5.835938-17.773437 20.128906 2.546875 26.734375-24.636719-10.683594-24.636719 10.683594 2.546876-26.734375-17.773438-20.128906 26.210938-5.835938zm0 0" fill="#fdf29e"/><path d="m314.5625 99.417969c-1.347656 0-2.703125-.273438-3.976562-.824219l-20.660157-8.957031-20.65625 8.957031c-3.246093 1.40625-6.992187.996094-9.855469-1.085938-2.863281-2.078124-4.414062-5.515624-4.078124-9.039062l2.132812-22.414062-14.898438-16.878907c-2.34375-2.652343-3.109374-6.34375-2.015624-9.710937 1.09375-3.363282 3.882812-5.898438 7.335937-6.667969l21.976563-4.898437 11.449218-19.390626c1.796875-3.042968 5.074219-4.914062 8.609375-4.914062 3.539063 0 6.8125 1.871094 8.613281 4.917969l11.445313 19.386719 21.976563 4.894531c3.453124.769531 6.242187 3.308593 7.335937 6.671875 1.09375 3.363281.328125 7.054687-2.011719 9.707031l-14.902344 16.882813 2.136719 22.414062c.332031 3.523438-1.21875 6.957031-4.078125 9.039062-1.738281 1.261719-3.800781 1.910157-5.878906 1.910157zm-45.792969-50.785157 6.5625 7.4375c1.832031 2.070313 2.722657 4.8125 2.460938 7.5625l-.941407 9.871094 9.097657-3.941406c2.539062-1.101562 5.417969-1.101562 7.957031 0l9.097656 3.941406-.941406-9.871094c-.261719-2.753906.628906-5.492187 2.460938-7.5625l6.5625-7.4375-9.679688-2.15625c-2.699219-.601562-5.03125-2.292968-6.4375-4.675781l-5.039062-8.539062-5.042969 8.539062c-1.40625 2.382813-3.738281 4.074219-6.4375 4.675781zm0 0"/></svg>