<svg id="Capa_1" enable-background="new 0 0 512 512" height="512" viewBox="0 0 512 512" width="512" xmlns="http://www.w3.org/2000/svg"><g><g><g><path d="m134.78 276.203h32.325v32.325h-32.325z" fill="#dd5790"/></g><g><path d="m167.106 39.825h177.789v121.22h-177.789z" fill="#ac80dd" transform="matrix(-1 0 0 -1 512 200.87)"/></g><g><path d="m322.671 39.825h22.224v121.22h-22.224z" fill="#9d66d5" transform="matrix(-1 0 0 -1 667.565 200.87)"/></g><g><path d="m114.577 308.528h282.846v40.407h-282.846z" fill="#ac80dd" transform="matrix(-1 0 0 -1 512 657.463)"/></g><g><path d="m373.179 308.528h24.244v40.407h-24.244z" fill="#9d66d5" transform="matrix(-1 0 0 -1 770.602 657.463)"/></g><g><path d="m344.894 276.203h32.325v32.325h-32.325z" fill="#dd5790" transform="matrix(-1 0 0 -1 722.114 584.732)"/></g><g><path d="m134.78 17.602h32.325v177.789h-32.325z" fill="#df75a5"/></g><g><path d="m134.78 171.146h32.325v24.244h-32.325z" fill="#dd5790"/></g><g><path d="m344.894 17.602h32.325v177.789h-32.325z" fill="#df75a5" transform="matrix(-1 0 0 -1 722.114 212.992)"/></g><g><path d="m344.894 171.146h32.325v24.244h-32.325z" fill="#dd5790"/></g><g><path d="m344.894 348.935h32.325v145.463h-32.325z" fill="#df75a5" transform="matrix(-1 0 0 -1 722.114 843.333)"/></g><g><path d="m344.894 348.935h32.325v24.244h-32.325z" fill="#dd5790" transform="matrix(-1 0 0 -1 722.114 722.114)"/></g><g><path d="m134.78 348.935h32.325v145.463h-32.325z" fill="#df75a5"/></g><g><path d="m134.78 348.935h32.325v24.244h-32.325z" fill="#dd5790" transform="matrix(-1 0 0 -1 301.886 722.114)"/></g><g><path d="m239.873 332.808h32.325v177.717h-32.325z" fill="#9d66d5" transform="matrix(0 1 -1 0 677.703 165.631)"/></g></g><g><g><path d="m494.398 235.797h-476.797c-5.579 0-10.102-4.523-10.102-10.102v-20.203c0-5.579 4.523-10.102 10.102-10.102h476.797c5.579 0 10.102 4.523 10.102 10.102v20.203c0 5.579-4.523 10.102-10.102 10.102z" fill="#f1d59d"/></g><g><path d="m49.927 235.797h412.147v40.407h-412.147z" fill="#dab46b"/></g><g><path d="m462.073 235.797h32.325v258.602h-32.325z" fill="#f1d59d"/></g><g><path d="m17.601 235.797h32.325v258.602h-32.325z" fill="#f1d59d" transform="matrix(-1 0 0 -1 67.528 730.195)"/></g><g><path d="m462.073 235.797h32.325v22.224h-32.325z" fill="#efcb84"/></g><g><path d="m17.601 235.797h32.325v22.224h-32.325z" fill="#efcb84" transform="matrix(-1 0 0 -1 67.528 493.817)"/></g></g><path d="m494.4 187.89h-45.97c-4.142 0-7.5 3.358-7.5 7.5s3.358 7.5 7.5 7.5h45.97c1.434 0 2.6 1.167 2.6 2.6v20.21c0 1.427-1.157 2.587-2.581 2.598-.007 0-.013-.001-.02-.001-.02 0-.038.003-.058.003h-476.741c-1.434 0-2.6-1.166-2.6-2.6v-20.21c0-1.434 1.167-2.6 2.6-2.6h395.83c4.142 0 7.5-3.358 7.5-7.5s-3.358-7.5-7.5-7.5h-28.71v-170.288c0-4.142-3.358-7.5-7.5-7.5h-32.325c-4.142 0-7.5 3.358-7.5 7.5v14.724h-162.785v-14.726c0-4.142-3.358-7.5-7.5-7.5h-32.33c-4.142 0-7.5 3.358-7.5 7.5v71.4c0 4.142 3.358 7.5 7.5 7.5s7.5-3.358 7.5-7.5v-63.9h17.33v162.79h-17.33v-63.89c0-4.142-3.358-7.5-7.5-7.5s-7.5 3.358-7.5 7.5v63.89h-109.68c-9.705 0-17.6 7.896-17.6 17.6v20.21c0 7.02 4.141 13.075 10.1 15.898v131.582c0 4.142 3.358 7.5 7.5 7.5s7.5-3.358 7.5-7.5v-129.88h17.33v32.836c0 .023-.003.045-.003.068s.003.045.003.068v210.628h-17.33v-78.72c0-4.142-3.358-7.5-7.5-7.5s-7.5 3.358-7.5 7.5v86.22c0 4.142 3.358 7.5 7.5 7.5h32.33c4.142 0 7.5-3.358 7.5-7.5v-210.697h69.85v17.325h-12.703c-4.142 0-7.5 3.358-7.5 7.5v40.407c0 4.142 3.358 7.5 7.5 7.5h12.703v137.963c0 4.142 3.358 7.5 7.5 7.5h32.325c4.142 0 7.5-3.358 7.5-7.5v-49.069h162.789v49.069c0 4.142 3.358 7.5 7.5 7.5h32.325c4.142 0 7.5-3.358 7.5-7.5v-137.963h12.703c4.142 0 7.5-3.358 7.5-7.5v-40.407c0-4.142-3.358-7.5-7.5-7.5h-12.702v-17.325h69.854v210.695c0 4.142 3.358 7.5 7.5 7.5h32.325c4.142 0 7.5-3.358 7.5-7.5v-252.8c5.96-2.823 10.102-8.878 10.102-15.899v-20.21c-.001-9.703-7.897-17.599-17.601-17.599zm-142.005-162.788h17.325v162.788h-17.325zm-15 22.223v106.22h-162.785v-106.22zm-162.785 121.22h162.785v19.345h-162.785zm-32.33 115.158h17.325v17.325h-17.325zm195.115 0v17.325h-162.79v-17.325zm-195.115 203.195v-130.463h17.325v130.463zm195.115-130.463v41.569h-162.79v-41.569zm-162.79 73.894v-17.325h162.789v17.325zm195.115 56.569h-17.325v-130.463h17.325zm20.203-145.463h-267.846v-25.407h267.846zm-20.203-40.407h-17.325v-17.325h17.325zm-312.29-32.325v-25.403h397.143v25.403zm412.143 218.195v-243.598h17.325v243.599h-17.325z"/></g></svg>