<?xml version="1.0" encoding="iso-8859-1"?>
<!-- Generator: Adobe Illustrator 19.0.0, SVG Export Plug-In . SVG Version: 6.00 Build 0)  -->
<svg version="1.1" id="Capa_1" xmlns="http://www.w3.org/2000/svg" xmlns:xlink="http://www.w3.org/1999/xlink" x="0px" y="0px"
	 viewBox="0 0 480 480" style="enable-background:new 0 0 480 480;" xml:space="preserve">
<path style="fill:#5A6570;" d="M40,8h400v464H40V8z"/>
<g>
	<path style="fill:#D1E3EE;" d="M216,8h224v64H216V8z"/>
	<path style="fill:#D1E3EE;" d="M216,408h224v64H216V408z"/>
	<path style="fill:#D1E3EE;" d="M216,344h224v64H216V344z"/>
</g>
<path style="fill:none;stroke:#CFAD9A;stroke-width:2;stroke-linecap:round;stroke-miterlimit:10;" d="M216,120h192"/>
<g>
	<path style="fill:#FFD884;" d="M248,160c-4.418,0-8-3.582-8-8v-48c0-4.418,3.582-8,8-8s8,3.582,8,8v48
		C256,156.418,252.418,160,248,160z"/>
	<path style="fill:#FFD884;" d="M280,160c-4.418,0-8-3.582-8-8v-48c0-4.418,3.582-8,8-8s8,3.582,8,8v48
		C288,156.418,284.418,160,280,160z"/>
	<path style="fill:#FFD884;" d="M312,160c-4.418,0-8-3.582-8-8v-48c0-4.418,3.582-8,8-8s8,3.582,8,8v48
		C320,156.418,316.418,160,312,160z"/>
	<path style="fill:#FFD884;" d="M344,160c-4.418,0-8-3.582-8-8v-48c0-4.418,3.582-8,8-8s8,3.582,8,8v48
		C352,156.418,348.418,160,344,160z"/>
	<path style="fill:#FFD884;" d="M376,160c-4.418,0-8-3.582-8-8v-48c0-4.418,3.582-8,8-8s8,3.582,8,8v48
		C384,156.418,380.418,160,376,160z"/>
</g>
<g>
	<path style="fill:#7D8F9F;" d="M344,384h-32c-4.418,0-8-3.582-8-8s3.582-8,8-8h32c4.418,0,8,3.582,8,8S348.418,384,344,384z"/>
	<path style="fill:#7D8F9F;" d="M344,448h-32c-4.418,0-8-3.582-8-8s3.582-8,8-8h32c4.418,0,8,3.582,8,8S348.418,448,344,448z"/>
</g>
<g>
	<path style="fill:#F6F6E7;" d="M385.376,344H270.624c-4.243-0.001-8.312-1.687-11.312-4.688c-6.246-6.248-6.246-16.376,0-22.624
		c3-3.001,7.069-4.687,11.312-4.688h114.752c4.243,0.001,8.312,1.687,11.312,4.688c6.246,6.248,6.246,16.376,0,22.624
		C393.688,342.313,389.619,343.999,385.376,344L385.376,344z"/>
	<path style="fill:#F6F6E7;" d="M386.744,312H272c-4.243-0.001-8.312-1.687-11.312-4.688c-6.246-6.248-6.246-16.376,0-22.624
		c3-3.001,7.069-4.687,11.312-4.688h114.744c4.243,0.001,8.312,1.687,11.312,4.688c6.246,6.248,6.246,16.376,0,22.624
		C395.056,310.313,390.987,311.999,386.744,312L386.744,312z"/>
</g>
<path style="fill:#88D0EF;" d="M40,8h176v464H40V8z"/>
<g>
	<path style="fill:#FFFFFF;" d="M72,104c-4.418-0.001-7.999-3.583-7.998-8.002c0-2.121,0.843-4.154,2.342-5.654l56-56
		c3.069-3.178,8.134-3.266,11.312-0.197c3.178,3.069,3.266,8.134,0.197,11.312c-0.064,0.067-0.13,0.132-0.197,0.197l-56,56
		C76.156,103.156,74.122,104,72,104z"/>
	<path style="fill:#FFFFFF;" d="M72,152c-4.418-0.001-7.999-3.583-7.998-8.002c0-2.121,0.843-4.154,2.342-5.654l96-96
		c3.069-3.178,8.134-3.266,11.312-0.197c3.178,3.069,3.266,8.134,0.197,11.312c-0.064,0.067-0.13,0.132-0.197,0.197l-96,96
		C76.156,151.156,74.122,152,72,152L72,152z"/>
</g>
<path style="fill:#7D8F9F;" d="M176,264c-4.418,0-8-3.582-8-8v-40c0-4.418,3.582-8,8-8s8,3.582,8,8v40
	C184,260.418,180.418,264,176,264z"/>
<path d="M40,480h400c4.418,0,8-3.582,8-8V8c0-4.418-3.582-8-8-8H40c-4.418,0-8,3.582-8,8v464C32,476.418,35.582,480,40,480z M224,16
	h208v48H224V16z M224,128h16v24c0,4.418,3.582,8,8,8s8-3.582,8-8v-24h16v24c0,4.418,3.582,8,8,8s8-3.582,8-8v-24h16v24
	c0,4.418,3.582,8,8,8s8-3.582,8-8v-24h16v24c0,4.418,3.582,8,8,8s8-3.582,8-8v-24h16v24c0,4.418,3.582,8,8,8s8-3.582,8-8v-24h24
	c4.418,0,8-3.582,8-8s-3.582-8-8-8h-24v-8c0-4.418-3.582-8-8-8s-8,3.582-8,8v8h-16v-8c0-4.418-3.582-8-8-8s-8,3.582-8,8v8h-16v-8
	c0-4.418-3.582-8-8-8s-8,3.582-8,8v8h-16v-8c0-4.418-3.582-8-8-8s-8,3.582-8,8v8h-16v-8c0-4.418-3.582-8-8-8s-8,3.582-8,8v8h-16V80
	h208v256h-24.08c2.955-7.903,1.386-16.787-4.096-23.2c9.278-9.466,9.126-24.661-0.339-33.939
	c-4.472-4.383-10.479-6.845-16.741-6.861H272c-13.179-0.095-23.941,10.511-24.036,23.691c-0.041,5.668,1.937,11.166,5.58,15.509
	c-6.5,6.495-8.633,16.175-5.464,24.8H224L224,128z M392.416,301.648c-1.503,1.507-3.544,2.354-5.672,2.352H272
	c-2.12-0.007-4.152-0.85-5.656-2.344c-3.123-3.124-3.123-8.188,0-11.312c1.504-1.494,3.536-2.337,5.656-2.344h114.744
	c4.418-0.003,8.003,3.575,8.006,7.994C394.752,298.113,393.912,300.147,392.416,301.648z M393.376,328
	c0.006,2.123-0.838,4.16-2.344,5.656c-1.504,1.494-3.536,2.336-5.656,2.344H270.624c-2.12-0.008-4.152-0.85-5.656-2.344
	c-3.123-3.124-3.123-8.188,0-11.312c1.504-1.494,3.536-2.336,5.656-2.344h114.752c2.12,0.008,4.152,0.85,5.656,2.344
	C392.538,323.84,393.382,325.877,393.376,328L393.376,328z M224,352h208v48H224V352z M224,416h208v48H224V416z M48,16h160v448H48V16
	z"/>
<path d="M344,32h-32c-4.418,0-8,3.582-8,8s3.582,8,8,8h32c4.418,0,8-3.582,8-8S348.418,32,344,32z"/>
<path d="M344,368h-32c-4.418,0-8,3.582-8,8s3.582,8,8,8h32c4.418,0,8-3.582,8-8S348.418,368,344,368z"/>
<path d="M344,432h-32c-4.418,0-8,3.582-8,8s3.582,8,8,8h32c4.418,0,8-3.582,8-8S348.418,432,344,432z"/>
<path d="M72,104c2.122,0,4.156-0.844,5.656-2.344l56-56c3.178-3.069,3.266-8.134,0.197-11.312
	c-3.069-3.178-8.134-3.266-11.312-0.197c-0.067,0.064-0.132,0.13-0.197,0.197l-56,56c-3.124,3.125-3.123,8.19,0.002,11.314
	C67.846,103.157,69.879,104,72,104z"/>
<path d="M173.656,42.344c-3.124-3.123-8.188-3.123-11.312,0l-96,96c-3.178,3.069-3.266,8.134-0.197,11.312s8.134,3.266,11.312,0.197
	c0.067-0.064,0.132-0.13,0.197-0.197l96-96C176.779,50.532,176.779,45.468,173.656,42.344L173.656,42.344z"/>
<path d="M176,208c-4.418,0-8,3.582-8,8v40c0,4.418,3.582,8,8,8s8-3.582,8-8v-40C184,211.582,180.418,208,176,208z"/>
<g>
</g>
<g>
</g>
<g>
</g>
<g>
</g>
<g>
</g>
<g>
</g>
<g>
</g>
<g>
</g>
<g>
</g>
<g>
</g>
<g>
</g>
<g>
</g>
<g>
</g>
<g>
</g>
<g>
</g>
</svg>
