<?xml version="1.0" encoding="iso-8859-1"?>
<!-- Generator: Adobe Illustrator 19.0.0, SVG Export Plug-In . SVG Version: 6.00 Build 0)  -->
<svg version="1.1" id="Capa_1" xmlns="http://www.w3.org/2000/svg" xmlns:xlink="http://www.w3.org/1999/xlink" x="0px" y="0px"
	 viewBox="0 0 512 512" style="enable-background:new 0 0 512 512;" xml:space="preserve">
<path style="fill:#57676E;" d="M465.227,347.246H191.408c-2.761,0-5-2.239-5-5V12.5c0-2.761,2.239-5,5-5h273.819
	c2.761,0,5,2.239,5,5v329.746C470.227,345.008,467.988,347.246,465.227,347.246z"/>
<path style="fill:#414D53;" d="M465.227,347.246h-15.91c-2.761,0-5-2.239-5-5V12.5c0-2.761,2.239-5,5-5h15.91c2.761,0,5,2.239,5,5
	v329.746C470.227,345.008,467.988,347.246,465.227,347.246z"/>
<path style="fill:#BAF6FF;" d="M397.651,347.246H258.984c-2.761,0-5-2.239-5-5V12.5c0-2.761,2.239-5,5-5h138.667
	c2.761,0,5,2.239,5,5v329.746C402.651,345.008,400.412,347.246,397.651,347.246z"/>
<path style="fill:#70B5E8;" d="M124.955,99.717v368.867c0,2.68-2.173,4.854-4.854,4.854h-97.07c-2.681,0-4.854-2.173-4.854-4.854
	V99.717c0-2.68,2.173-4.854,4.854-4.854h97.07C122.782,94.863,124.955,97.036,124.955,99.717z M476.636,303.079H179.999
	c-2.681,0-4.854,2.173-4.854,4.854v160.651c0,2.68,2.173,4.854,4.854,4.854h296.637c2.68,0,4.854-2.173,4.854-4.854V307.933
	C481.489,305.252,479.316,303.079,476.636,303.079z"/>
<g>
	<path style="fill:#52A5D8;" d="M124.955,99.717v368.867c0,2.68-2.173,4.854-4.854,4.854H90.01c2.681,0,4.854-2.173,4.854-4.854
		V99.717c0-2.68-2.173-4.854-4.854-4.854h30.092C122.782,94.863,124.955,97.036,124.955,99.717z M476.636,303.079h-37.173
		c2.681,0,4.854,2.173,4.854,4.854v160.651c0,2.68-2.173,4.854-4.854,4.854h37.173c2.68,0,4.854-2.173,4.854-4.854V307.933
		C481.489,305.252,479.316,303.079,476.636,303.079z"/>
	<path style="fill:#52A5D8;" d="M18.178,250.176h106.777v58.242H18.178V250.176z M175.145,388.258v80.326
		c0,2.68,2.173,4.854,4.854,4.854h296.637c2.68,0,4.854-2.173,4.854-4.854v-80.326H175.145z"/>
</g>
<path style="fill:#4194C7;" d="M94.863,250.176h30.092v58.242H94.863V250.176z M444.316,388.258v80.326
	c0,2.68-2.173,4.854-4.854,4.854h37.173c2.68,0,4.854-2.173,4.854-4.854v-80.326H444.316z"/>
<path style="fill:#A2DAF9;" d="M402.651,46.328v232.969h86.318c2.681,0,4.854,2.173,4.854,4.854v29.121
	c0,2.68-2.173,4.854-4.854,4.854H167.666c-2.681,0-4.854-2.173-4.854-4.854V284.15c0-2.68,2.173-4.854,4.854-4.854h208.701V46.328
	H167.666c-2.681,0-4.854-2.173-4.854-4.854v-29.12c0-2.68,2.173-4.854,4.854-4.854h213.555h16.577h91.171
	c2.681,0,4.854,2.173,4.854,4.854v29.121c0,2.68-2.173,4.854-4.854,4.854L402.651,46.328L402.651,46.328z"/>
<path style="fill:#84C5FA;" d="M493.822,12.354v29.121c0,2.68-2.173,4.854-4.854,4.854H450.14c2.681,0,4.854-2.173,4.854-4.854
	V12.354c0-2.68-2.173-4.854-4.854-4.854h38.828C491.649,7.5,493.822,9.673,493.822,12.354z M488.969,279.297h-38.828
	c2.681,0,4.854,2.173,4.854,4.854v29.121c0,2.68-2.173,4.854-4.854,4.854h38.828c2.681,0,4.854-2.173,4.854-4.854V284.15
	C493.822,281.47,491.649,279.297,488.969,279.297z"/>
<path style="fill:#FEF0FF;" d="M432.295,225.908L432.295,225.908c0,29.486-23.903,53.389-53.389,53.389h-93.785
	c-29.486,0-53.389-23.903-53.389-53.389l0,0c0-2.681,2.173-4.854,4.854-4.854h190.855
	C430.122,221.055,432.295,223.228,432.295,225.908z"/>
<path style="fill:#D5DCED;" d="M432.294,225.908L432.294,225.908c0,29.486-23.903,53.389-53.388,53.389h-46.22
	c29.486,0,53.389-23.903,53.389-53.389l0,0c0-2.68-2.173-4.854-4.854-4.854h46.22C430.122,221.055,432.294,223.228,432.294,225.908z
	"/>
<path style="fill:#FFDC64;" d="M211.833,104.57c0,10.722-8.692,19.414-19.414,19.414s-19.414-8.692-19.414-19.414
	s8.692-19.414,19.414-19.414S211.833,93.848,211.833,104.57z M192.419,162.813c-10.722,0-19.414,8.692-19.414,19.414
	s8.692,19.414,19.414,19.414s19.414-8.692,19.414-19.414S203.141,162.813,192.419,162.813z M464.216,123.984
	c10.722,0,19.414-8.692,19.414-19.414s-8.692-19.414-19.414-19.414s-19.414,8.692-19.414,19.414S453.494,123.984,464.216,123.984z
	 M464.216,162.813c-10.722,0-19.414,8.692-19.414,19.414s8.692,19.414,19.414,19.414s19.414-8.692,19.414-19.414
	S474.938,162.813,464.216,162.813z"/>
<path d="M48.535,279.297c0-4.143,3.357-7.5,7.5-7.5h29.121c4.143,0,7.5,3.357,7.5,7.5s-3.357,7.5-7.5,7.5H56.035
	C51.893,286.797,48.535,283.439,48.535,279.297z M362.292,339.746h-67.949c-4.143,0-7.5,3.357-7.5,7.5s3.357,7.5,7.5,7.5h67.949
	c4.143,0,7.5-3.357,7.5-7.5S366.435,339.746,362.292,339.746z M362.292,417.402h-67.949c-4.143,0-7.5,3.357-7.5,7.5
	s3.357,7.5,7.5,7.5h67.949c4.143,0,7.5-3.357,7.5-7.5S366.435,417.402,362.292,417.402z M94.863,189.727c4.143,0,7.5-3.357,7.5-7.5
	v-29.121c0-4.143-3.357-7.5-7.5-7.5s-7.5,3.357-7.5,7.5v29.121C87.363,186.369,90.721,189.727,94.863,189.727z M94.863,339.746
	c-4.143,0-7.5,3.357-7.5,7.5v29.121c0,4.143,3.357,7.5,7.5,7.5s7.5-3.357,7.5-7.5v-29.121
	C102.363,343.104,99.006,339.746,94.863,339.746z M512,504.5c0,4.143-3.357,7.5-7.5,7.5H385.427c-4.143,0-7.5-3.357-7.5-7.5
	s3.357-7.5,7.5-7.5h51.875v-16.063H219.333V497h135.679c4.143,0,7.5,3.357,7.5,7.5s-3.357,7.5-7.5,7.5H7.5
	c-4.143,0-7.5-3.357-7.5-7.5s3.357-7.5,7.5-7.5h17.738v-16.063h-2.061c-6.893,0-12.5-5.607-12.5-12.5V99.863
	c0-6.893,5.607-12.5,12.5-12.5h96.777c6.893,0,12.5,5.607,12.5,12.5v368.574c0,6.893-5.607,12.5-12.5,12.5h-2.061V497h86.438
	v-16.063h-24.334c-6.812,0-12.354-5.401-12.354-12.04V325.624c-6.802-0.011-12.333-5.548-12.333-12.353V284.15
	c0-6.812,5.542-12.354,12.354-12.354h11.242v-66.308c-8.007-4.668-13.403-13.345-13.403-23.263s5.396-18.594,13.403-23.263v-31.131
	c-8.007-4.668-13.403-13.345-13.403-23.263s5.396-18.594,13.403-23.263V53.828h-11.242c-6.812,0-12.354-5.542-12.354-12.354v-29.12
	C155.313,5.542,160.854,0,167.666,0h321.303c6.812,0,12.354,5.542,12.354,12.354v29.121c0,6.812-5.542,12.354-12.354,12.354h-11.242
	v27.479c8.007,4.668,13.403,13.345,13.403,23.263s-5.396,18.594-13.403,23.263v31.131c8.007,4.668,13.403,13.345,13.403,23.263
	s-5.396,18.594-13.403,23.263v66.308h11.242c6.812,0,12.354,5.542,12.354,12.354v29.121c0,6.805-5.531,12.341-12.333,12.353V468.9
	c0,6.639-5.542,12.04-12.354,12.04h-24.334V497H504.5C508.643,497,512,500.357,512,504.5z M117.455,465.938v-150.02H25.678v150.02
	H117.455z M117.455,257.676H25.678v43.242h91.777V257.676z M25.678,102.363v140.313h91.777V102.363H25.678z M40.238,497h62.656
	v-16.063H40.238V497z M182.646,380.759H473.99v-55.134H182.646V380.759z M452.302,182.227c0,6.569,5.345,11.914,11.914,11.914
	s11.914-5.345,11.914-11.914s-5.345-11.914-11.914-11.914S452.302,175.657,452.302,182.227z M452.302,104.57
	c0,6.569,5.345,11.914,11.914,11.914s11.914-5.345,11.914-11.914s-5.345-11.914-11.914-11.914S452.302,98.001,452.302,104.57z
	 M462.727,53.828H410.15v24.454c0,0.003,0,0.007,0,0.007v135.266h17.291c6.812,0,12.354,5.542,12.354,12.354
	c0,18.294-8.122,34.718-20.935,45.889h43.867v-62.699c-14.151-0.776-25.425-12.53-25.425-26.871s11.274-26.095,25.425-26.871
	v-23.914c-14.151-0.776-25.425-12.53-25.425-26.871s11.274-26.095,25.425-26.871V53.828z M170.313,38.828h109.955
	c4.143,0,7.5,3.357,7.5,7.5s-3.357,7.5-7.5,7.5h-18.783v110.291l45.438-45.438c2.93-2.928,7.678-2.928,10.607,0
	c2.929,2.93,2.929,7.678,0,10.607l-56.046,56.046v28.221h49.141v-36.182c0-12.164,9.896-22.061,22.061-22.061
	s22.061,9.896,22.061,22.061v4.854c0,4.143-3.357,7.5-7.5,7.5s-7.5-3.357-7.5-7.5v-4.854c0-3.894-3.167-7.061-7.061-7.061
	s-7.061,3.167-7.061,7.061v36.182h69.525V96.395l-42.601,42.601c-1.465,1.464-3.385,2.196-5.304,2.196s-3.839-0.732-5.304-2.196
	c-2.929-2.93-2.929-7.678,0-10.607L395.15,75.18V53.828h-44.797l-46.339,46.339c-1.465,1.464-3.385,2.196-5.304,2.196
	s-3.839-0.732-5.304-2.196c-2.929-2.93-2.929-7.678,0-10.607l35.731-35.731h-21.044c-4.143,0-7.5-3.357-7.5-7.5s3.357-7.5,7.5-7.5
	h178.228V15h-316.01v23.828H170.313z M204.333,104.57c0-6.569-5.345-11.914-11.914-11.914s-11.914,5.345-11.914,11.914
	s5.345,11.914,11.914,11.914S204.333,111.14,204.333,104.57z M204.333,182.227c0-6.569-5.345-11.914-11.914-11.914
	s-11.914,5.345-11.914,11.914s5.345,11.914,11.914,11.914S204.333,188.796,204.333,182.227z M193.908,271.797h51.26
	c-12.814-11.171-20.935-27.594-20.935-45.889c0-6.812,5.542-12.354,12.354-12.354h9.898v-31.323v-0.01V53.828h-52.576v23.871
	c14.151,0.776,25.425,12.53,25.425,26.871s-11.274,26.095-25.425,26.871v23.914c14.151,0.776,25.425,12.53,25.425,26.871
	s-11.274,26.095-25.425,26.871L193.908,271.797L193.908,271.797z M170.313,310.625h316.01v-23.828h-130.34
	c-4.143,0-7.5-3.357-7.5-7.5s3.357-7.5,7.5-7.5h22.924c24.415,0,44.438-19.165,45.813-43.242H239.308
	c1.376,24.077,21.398,43.242,45.813,43.242h41.74c4.143,0,7.5,3.357,7.5,7.5s-3.357,7.5-7.5,7.5H170.313V310.625z M182.646,465.938
	H473.99v-70.179H182.646V465.938z"/>
<g>
</g>
<g>
</g>
<g>
</g>
<g>
</g>
<g>
</g>
<g>
</g>
<g>
</g>
<g>
</g>
<g>
</g>
<g>
</g>
<g>
</g>
<g>
</g>
<g>
</g>
<g>
</g>
<g>
</g>
</svg>
