<?xml version="1.0" encoding="iso-8859-1"?>
<!-- Generator: Adobe Illustrator 19.0.0, SVG Export Plug-In . SVG Version: 6.00 Build 0)  -->
<svg version="1.1" id="Layer_1" xmlns="http://www.w3.org/2000/svg" xmlns:xlink="http://www.w3.org/1999/xlink" x="0px" y="0px"
	 viewBox="0 0 512 512" style="enable-background:new 0 0 512 512;" xml:space="preserve">
<g>
	<path style="fill:#523D1C;" d="M103.177,467.478c-1.899,3.277-3.003,7.071-3.003,11.13c0,12.295,9.966,22.261,22.261,22.261
		s22.261-9.966,22.261-22.261c0-4.059-1.104-7.854-3.003-11.13H103.177z"/>
	<path style="fill:#523D1C;" d="M370.307,467.478c-1.899,3.277-3.003,7.071-3.003,11.13c0,12.295,9.966,22.261,22.261,22.261
		c12.295,0,22.261-9.966,22.261-22.261c0-4.059-1.104-7.854-3.003-11.13H370.307z"/>
</g>
<rect x="77.913" y="11.13" style="fill:#F2CD83;" width="356.174" height="456.348"/>
<g>
	<rect x="77.913" y="422.957" style="fill:#E2A271;" width="356.174" height="44.522"/>
	<polygon style="fill:#E2A271;" points="77.913,11.13 77.913,55.652 322.783,55.652 389.565,55.652 434.087,55.652 434.087,11.13 	
		"/>
</g>
<path d="M434.087,478.609H77.913c-6.146,0-11.13-4.983-11.13-11.13V11.13C66.783,4.983,71.767,0,77.913,0h356.174
	c6.146,0,11.13,4.983,11.13,11.13v456.348C445.217,473.626,440.233,478.609,434.087,478.609z M89.043,456.348h333.913V22.261H89.043
	V456.348z"/>
<path d="M356.174,66.783c-2.927,0-5.799-1.191-7.869-3.261c-2.07-2.07-3.261-4.942-3.261-7.869c0-2.927,1.19-5.799,3.261-7.869
	c2.07-2.07,4.942-3.261,7.869-3.261s5.799,1.191,7.868,3.261c2.071,2.07,3.262,4.942,3.262,7.869c0,2.927-1.191,5.799-3.262,7.869
	C361.973,65.592,359.101,66.783,356.174,66.783z"/>
<path d="M434.087,66.783h-44.522c-6.146,0-11.13-4.983-11.13-11.13s4.984-11.13,11.13-11.13h33.391V22.261H89.043v22.261h233.739
	c6.146,0,11.13,4.983,11.13,11.13s-4.984,11.13-11.13,11.13H77.913c-6.146,0-11.13-4.983-11.13-11.13V11.13
	C66.783,4.983,71.767,0,77.913,0h356.174c6.146,0,11.13,4.983,11.13,11.13v44.522C445.217,61.8,440.233,66.783,434.087,66.783z"/>
<path d="M434.087,478.609H77.913c-6.146,0-11.13-4.983-11.13-11.13v-44.522c0-6.147,4.984-11.13,11.13-11.13h356.174
	c6.146,0,11.13,4.983,11.13,11.13v44.522C445.217,473.626,440.233,478.609,434.087,478.609z M89.043,456.348h333.913v-22.261H89.043
	V456.348z"/>
<path d="M256,434.087c-6.146,0-11.13-4.983-11.13-11.13V55.652c0-6.147,4.984-11.13,11.13-11.13s11.13,4.983,11.13,11.13v367.304
	C267.13,429.104,262.146,434.087,256,434.087z"/>
<path d="M300.522,272.974c-6.146,0-11.13-4.983-11.13-11.13v-44.522c0-6.147,4.984-11.13,11.13-11.13s11.13,4.983,11.13,11.13
	v44.522C311.652,267.991,306.668,272.974,300.522,272.974z"/>
<path d="M211.478,269.635c-6.146,0-11.13-4.983-11.13-11.13v-44.522c0-6.147,4.984-11.13,11.13-11.13
	c6.146,0,11.13,4.983,11.13,11.13v44.522C222.609,264.652,217.624,269.635,211.478,269.635z"/>
<path d="M122.435,512c-18.412,0-33.391-14.979-33.391-33.391c0-5.846,1.556-11.624,4.501-16.708c1.99-3.437,5.66-5.553,9.631-5.553
	h38.517c3.971,0,7.641,2.116,9.631,5.553c2.946,5.084,4.502,10.862,4.502,16.708C155.826,497.021,140.847,512,122.435,512z
	 M111.304,478.609c0,6.137,4.993,11.13,11.13,11.13s11.13-4.993,11.13-11.13H111.304z"/>
<path d="M389.565,512c-18.412,0-33.391-14.979-33.391-33.391c0-5.846,1.556-11.624,4.501-16.708c1.99-3.437,5.66-5.553,9.631-5.553
	h38.517c3.971,0,7.641,2.116,9.631,5.553c2.946,5.084,4.502,10.862,4.502,16.708C422.957,497.021,407.977,512,389.565,512z
	 M378.435,478.609c0,6.137,4.993,11.13,11.13,11.13s11.13-4.993,11.13-11.13H378.435z"/>
<path d="M122.435,389.565H77.913c-6.146,0-11.13-4.983-11.13-11.13c0-6.147,4.984-11.13,11.13-11.13h44.522
	c6.146,0,11.13,4.983,11.13,11.13C133.565,384.582,128.581,389.565,122.435,389.565z"/>
<path d="M155.826,389.565c-2.927,0-5.799-1.191-7.869-3.261c-2.07-2.07-3.261-4.942-3.261-7.869s1.19-5.799,3.261-7.869
	c2.07-2.07,4.942-3.261,7.869-3.261s5.799,1.191,7.868,3.261c2.07,2.07,3.262,4.942,3.262,7.869s-1.191,5.799-3.262,7.869
	C161.625,388.374,158.753,389.565,155.826,389.565z"/>
<g>
</g>
<g>
</g>
<g>
</g>
<g>
</g>
<g>
</g>
<g>
</g>
<g>
</g>
<g>
</g>
<g>
</g>
<g>
</g>
<g>
</g>
<g>
</g>
<g>
</g>
<g>
</g>
<g>
</g>
</svg>
