<svg id="Capa_1" enable-background="new 0 0 512 512" height="512" viewBox="0 0 512 512" width="512" xmlns="http://www.w3.org/2000/svg"><g><path d="m498.5 102.134h-47.523c-4.143 0-7.5 3.357-7.5 7.5s3.357 7.5 7.5 7.5h46.023v27.667c-26.289 0-460.551 0-482 0v-27.667h400.977c4.143 0 7.5-3.357 7.5-7.5s-3.357-7.5-7.5-7.5h-402.477c-7.444 0-13.5 6.056-13.5 13.5v30.667c0 7.444 6.056 13.5 13.5 13.5h5.5v92.5c0 4.143 3.357 7.5 7.5 7.5s7.5-3.357 7.5-7.5v-92.5h17v235.065h-17v-107.565c0-4.143-3.357-7.5-7.5-7.5s-7.5 3.357-7.5 7.5v112.065c0 5.79 4.71 10.5 10.5 10.5h26c5.79 0 10.5-4.71 10.5-10.5v-108.167h243.5v44.5c0 7.444 6.056 13.5 13.5 13.5h123v50.167c0 5.79 4.71 10.5 10.5 10.5h26c5.79 0 10.5-4.71 10.5-10.5v-239.565h5.5c7.444 0 13.5-6.056 13.5-13.5v-30.667c0-7.445-6.056-13.5-13.5-13.5zm-189 174.065h-243.5v-116.398h243.5zm136.5 58h-121.5v-48.133h121.5zm0-63.133h-121.5v-48.133h121.5zm0-63.132h-121.5v-48.133h121.5zm32 186.932h-17c0-4.783 0-162.425 0-235.065h17z"/><path d="m368.583 191.367h33.334c4.143 0 7.5-3.357 7.5-7.5s-3.357-7.5-7.5-7.5h-33.334c-4.143 0-7.5 3.357-7.5 7.5s3.357 7.5 7.5 7.5z"/><path d="m368.583 254.5h33.334c4.143 0 7.5-3.357 7.5-7.5s-3.357-7.5-7.5-7.5h-33.334c-4.143 0-7.5 3.357-7.5 7.5s3.357 7.5 7.5 7.5z"/><path d="m368.583 320.715h33.334c4.143 0 7.5-3.357 7.5-7.5s-3.357-7.5-7.5-7.5h-33.334c-4.143 0-7.5 3.357-7.5 7.5s3.357 7.5 7.5 7.5z"/></g></svg>