<svg id="Capa_1" enable-background="new 0 0 512 512" height="512" viewBox="0 0 512 512" width="512" xmlns="http://www.w3.org/2000/svg"><g><g><path d="m42.5 130.967h429.865v152.732h-429.865z" fill="#dc8758"/><path d="m453.5 341.699h-130.5c-3.314 0-6-2.686-6-6v-57.133h136.5z" fill="#ecbba3"/><path d="m317 215.434h136.5v63.133h-136.5z" fill="#f4d7c8"/><path d="m317 152.301h136.5v63.133h-136.5z" fill="#ecbba3"/><path d="m482.5 402.366h-26c-1.657 0-3-1.343-3-3v-268.399h32v268.399c0 1.657-1.343 3-3 3z" fill="#c86d36"/><path d="m55.5 402.366h-26c-1.657 0-3-1.343-3-3v-268.399h32v268.399c0 1.657-1.343 3-3 3z" fill="#c86d36"/><path d="m26.5 137.98h32v42.667h-32z" fill="#ac5e2e"/><path d="m453.5 137.98h32v42.667h-32z" fill="#ac5e2e"/><path d="m498.5 152.301h-485c-3.314 0-6-2.686-6-6v-30.667c0-3.314 2.686-6 6-6h485c3.314 0 6 2.686 6 6v30.667c0 3.313-2.686 6-6 6z" fill="#9e5528"/><path d="m498.5 109.634h-39.685c3.314 0 6 2.687 6 6v30.667c0 3.313-2.686 6-6 6h39.685c3.314 0 6-2.687 6-6v-30.667c0-3.314-2.686-6-6-6z" fill="#904d24"/><path d="m425.154 278.566h28.346v63.133h-28.346z" fill="#e8ad8c"/><path d="m425.154 215.434h28.346v63.133h-28.346z" fill="#ecbba3"/><path d="m425.154 152.301h28.346v63.133h-28.346z" fill="#e8ad8c"/></g><g><path d="m498.5 102.134h-47.523c-4.143 0-7.5 3.357-7.5 7.5s3.357 7.5 7.5 7.5h46.023v27.667c-26.289 0-460.551 0-482 0v-27.667h400.977c4.143 0 7.5-3.357 7.5-7.5s-3.357-7.5-7.5-7.5h-402.477c-7.444 0-13.5 6.056-13.5 13.5v30.667c0 7.444 6.056 13.5 13.5 13.5h5.5v92.5c0 4.143 3.357 7.5 7.5 7.5s7.5-3.357 7.5-7.5v-92.5h17v235.065h-17v-107.565c0-4.143-3.357-7.5-7.5-7.5s-7.5 3.357-7.5 7.5v112.065c0 5.79 4.71 10.5 10.5 10.5h26c5.79 0 10.5-4.71 10.5-10.5v-108.167h243.5v44.5c0 7.444 6.056 13.5 13.5 13.5h123v50.167c0 5.79 4.71 10.5 10.5 10.5h26c5.79 0 10.5-4.71 10.5-10.5v-239.565h5.5c7.444 0 13.5-6.056 13.5-13.5v-30.667c0-7.445-6.056-13.5-13.5-13.5zm-189 174.065h-243.5v-116.398h243.5zm136.5 58h-121.5v-48.133h121.5zm0-63.133h-121.5v-48.133h121.5zm0-63.132h-121.5v-48.133h121.5zm32 186.932h-17c0-4.783 0-162.425 0-235.065h17z"/><path d="m368.583 191.367h33.334c4.143 0 7.5-3.357 7.5-7.5s-3.357-7.5-7.5-7.5h-33.334c-4.143 0-7.5 3.357-7.5 7.5s3.357 7.5 7.5 7.5z"/><path d="m368.583 254.5h33.334c4.143 0 7.5-3.357 7.5-7.5s-3.357-7.5-7.5-7.5h-33.334c-4.143 0-7.5 3.357-7.5 7.5s3.357 7.5 7.5 7.5z"/><path d="m368.583 320.715h33.334c4.143 0 7.5-3.357 7.5-7.5s-3.357-7.5-7.5-7.5h-33.334c-4.143 0-7.5 3.357-7.5 7.5s3.357 7.5 7.5 7.5z"/></g></g></svg>