<svg id="Capa_1" enable-background="new 0 0 512 512" height="512" viewBox="0 0 512 512" width="512" xmlns="http://www.w3.org/2000/svg"><g><g><path d="m76.925 192.797v213.311c0 8.539 6.922 15.461 15.461 15.461 8.165 0 14.923-6.349 15.431-14.498l13.377-214.275h-44.269z" fill="#596c76"/><path d="m390.805 192.797 13.377 214.275c.509 8.149 7.266 14.498 15.431 14.498 8.539 0 15.461-6.922 15.461-15.461v-213.312z" fill="#596c76"/><path d="m35 135.729v39.067c0 9.941 8.059 18 18 18h406c9.941 0 18-8.059 18-18v-39.067z" fill="#aa6a51"/><g><path d="m492.5 90.08h-473c-6.627 0-12 5.373-12 12v21.649c0 6.627 5.373 12 12 12h473c6.627 0 12-5.373 12-12v-21.649c0-6.627-5.373-12-12-12z" fill="#bc7c63"/><path d="m492.5 90.08h-39.685c6.627 0 12 5.373 12 12v21.649c0 6.627-5.373 12-12 12h39.685c6.627 0 12-5.373 12-12v-21.649c0-6.627-5.373-12-12-12z" fill="#aa6a51"/></g><path d="m437.315 135.73v39.067c0 9.941-8.059 18-18 18h39.685c9.941 0 18-8.059 18-18v-39.067z" fill="#935b44"/><g fill="#465a61"><path d="m76.925 221.143h42.5l1.77-28.346h-44.27z"/><path d="m392.575 221.143h42.5v-28.346h-44.27z"/></g></g><path d="m492.5 82.755h-82c-4.143 0-7.5 3.358-7.5 7.5s3.357 7.5 7.5 7.5h82c2.481 0 4.5 2.019 4.5 4.5v21.649c0 1.149-.422 2.01-.778 2.531-.003.003-.005.007-.008.01-.843 1.227-2.231 1.958-3.714 1.958-4.512 0-468.505 0-473 0-2.481 0-4.5-2.019-4.5-4.5v-21.649c0-2.481 2.019-4.5 4.5-4.5h356c4.143 0 7.5-3.358 7.5-7.5s-3.357-7.5-7.5-7.5h-356c-10.752 0-19.5 8.748-19.5 19.5v21.649c0 10.752 8.748 19.5 19.5 19.5h8v31.567c0 14.061 11.439 25.5 25.5 25.5h16.425v88.5c0 4.142 3.358 7.5 7.5 7.5s7.5-3.358 7.5-7.5v-88.5h28.787l-12.879 206.307c-.261 4.186-3.751 7.465-7.946 7.465-4.39 0-7.961-3.571-7.961-7.961v-82.311c0-4.142-3.358-7.5-7.5-7.5s-7.5 3.358-7.5 7.5v82.311c0 12.661 10.3 22.961 22.961 22.961 12.097 0 22.163-9.458 22.917-21.531l12.938-207.242h255.517l12.938 207.242c.754 12.073 10.82 21.531 22.917 21.531 12.661 0 22.962-10.3 22.962-22.961v-205.809h16.424c14.061 0 25.5-11.439 25.5-25.5v-31.567h8c6.413 0 12.412-3.152 16.056-8.433.006-.009.013-.018.019-.026 2.241-3.259 3.426-7.077 3.426-11.041v-21.649c-.001-10.753-8.749-19.501-19.501-19.501zm-64.925 323.528c0 4.39-3.571 7.961-7.962 7.961-4.194 0-7.685-3.279-7.946-7.465l-12.88-206.307h28.788zm41.925-231.311c0 5.79-4.71 10.5-10.5 10.5-6.314 0-395.768 0-406 0-5.79 0-10.5-4.71-10.5-10.5v-31.567h427z"/></g></svg>