<svg version="1" xmlns="http://www.w3.org/2000/svg" width="600" height="600" viewBox="0 0 450.000000 450.000000"><path d="M55.9 46.8c-3.9 2-6.2 4.1-8.4 7.7l-3 4.8-.3 171.5c-.1 126.4.1 171.8.9 172.8 1.5 1.9 24.9 2 26.7.2.7-.7 1.2-4.4 1.2-9.4 0-6.5.3-8.3 1.6-8.8 2-.8 298.8-.8 300.8 0 1.3.5 1.6 2.3 1.6 8.8 0 5 .5 8.7 1.2 9.4 1.7 1.7 24.9 1.7 26.6 0 .9-.9 1.2-40.5 1.2-171.9V61.2l-2.8-5.3c-2-3.9-4.1-6.2-7.7-8.4l-4.8-3-164.7-.3L61.3 44l-5.4 2.8zm319.5 26.8c1.4.5 1.6 4.7 1.6 36.9 0 32.2-.2 36.4-1.6 36.9-2 .8-298.8.8-300.8 0-1.4-.5-1.6-4.7-1.6-36.9 0-28.1.3-36.4 1.3-36.8 1.8-.8 299.2-.8 301.1-.1zm0 104c1.4.5 1.6 4.7 1.6 36.9 0 32.2-.2 36.4-1.6 36.9-2 .8-298.8.8-300.8 0-1.4-.5-1.6-4.7-1.6-36.9 0-28.1.3-36.4 1.3-36.8 1.8-.8 299.2-.8 301.1-.1zm0 104c1.4.5 1.6 4.7 1.6 36.9 0 32.2-.2 36.4-1.6 36.9-2 .8-298.8.8-300.8 0-1.4-.5-1.6-4.7-1.6-36.9 0-28.1.3-36.4 1.3-36.8 1.8-.8 299.2-.8 301.1-.1z"/><path d="M165.2 99.1c-1.8 1.2-3.9 3.4-4.7 5-2.1 4-1.9 10.8.5 14.6 3.9 6.5 2.1 6.3 64.2 6.3 54.1 0 56.4-.1 59.5-2 4-2.4 6.3-6.7 6.3-12s-2.1-9.3-6.3-11.9c-3.4-2.1-4.3-2.1-59.8-2.1-55.6 0-56.4.1-59.7 2.1zM165.2 202.1c-1.8 1.2-3.9 3.4-4.7 5-2.1 4-1.9 10.8.5 14.6 3.9 6.5 2.1 6.3 64.2 6.3 54.1 0 56.4-.1 59.5-2 4-2.4 6.3-6.7 6.3-12s-2.1-9.3-6.3-11.9c-3.4-2.1-4.3-2.1-59.8-2.1-55.6 0-56.4.1-59.7 2.1zM165.3 305c-8.7 5.2-8.3 19.8.6 24.5 2.6 1.3 10.4 1.5 59.3 1.5 54.1 0 56.4-.1 59.5-2 8.5-5.1 8.5-18.9 0-24-3.1-1.9-5.4-2-59.7-2-54.3 0-56.6.1-59.7 2z"/></svg>