<?xml version="1.0" encoding="UTF-8"?>
<!DOCTYPE svg PUBLIC "-//W3C//DTD SVG 1.1//EN" "http://www.w3.org/Graphics/SVG/1.1/DTD/svg11.dtd">
<!-- Creator: CorelDRAW X8 -->
<svg xmlns="http://www.w3.org/2000/svg" xml:space="preserve" width="350px" height="220px" version="1.1" shape-rendering="geometricPrecision" text-rendering="geometricPrecision" image-rendering="optimizeQuality" fill-rule="evenodd" clip-rule="evenodd"
viewBox="0 0 350 220"
 xmlns:xlink="http://www.w3.org/1999/xlink">
 <defs>
    <clipPath id="id0">
     <path d="M42 -21l264 0 0 265 -264 0 0 -265z"/>
    </clipPath>
 </defs>
 <g id="Слой_x0020_1">
  <metadata id="CorelCorpID_0Corel-Layer"/>
  <g id="_1087288704">
   <path fill="#E8E8E8" d="M219 179l-187 0c-7,0 -13,-6 -13,-14l0 -120 213 0 0 120c0,8 -6,14 -13,14z"/>
   <path fill="#90DCA3" d="M201 108l-71 0c-6,0 -11,-4 -11,-11l0 -29c0,-6 5,-11 11,-11l71 0c6,0 11,5 11,11l0 29c0,7 -5,11 -11,11z"/>
   <path fill="#404B58" d="M219 11l-187 0c-7,0 -13,6 -13,14l0 15 213 0 0 -15c0,-8 -6,-14 -13,-14z"/>
   <circle fill="#ED718B" cx="48" cy="26" r="6"/>
   <circle fill="#FBE096" cx="69" cy="26" r="6"/>
   <circle fill="#90DCA3" cx="91" cy="26" r="6"/>
   <path fill="white" d="M94 85l-50 0c-2,0 -4,-2 -4,-5l0 -11c0,-2 2,-4 4,-4l50 0c3,0 5,2 5,4l0 11c0,3 -2,5 -5,5z"/>
   <path fill="#ED718B" d="M151 154l-27 0c-3,0 -5,-2 -5,-5l0 -9c0,-3 2,-5 5,-5l27 0c3,0 6,2 6,5l0 9c0,3 -3,5 -6,5z"/>
   <path fill="#79C6E4" d="M207 154l-28 0c-3,0 -5,-2 -5,-5l0 -9c0,-3 2,-5 5,-5l28 0c3,0 5,2 5,5l0 9c0,3 -2,5 -5,5z"/>
   <path fill="black" fill-opacity="0.101961" d="M219 11l-14 0c7,0 13,6 13,14l0 15 -199 0 0 8 199 0 0 112c0,8 -6,14 -13,14l14 0c7,0 13,-6 13,-14l0 -135c0,-8 -6,-14 -13,-14z"/>
   <path fill="black" d="M40 138l20 0c1,0 3,-1 3,-3 0,-2 -2,-3 -3,-3l-20 0c-2,0 -3,1 -3,3 0,2 1,3 3,3zm0 -13l40 0c1,0 3,-1 3,-3 0,-2 -2,-3 -3,-3l-40 0c-2,0 -3,1 -3,3 0,2 1,3 3,3zm179 -117l-187 0c-9,0 -16,7 -16,17l0 103c0,1 1,3 3,3 2,0 3,-2 3,-3l0 -85 172 0c2,0 4,-1 4,-3 0,-2 -2,-3 -4,-3l-172 0 0 -12c0,-6 5,-11 10,-11l187 0c6,0 10,5 10,11l0 12 -12 0c-1,0 -3,1 -3,3 0,2 2,3 3,3l12 0 0 117c0,6 -4,10 -10,10l-187 0c-5,0 -10,-4 -10,-10l0 -13c0,-1 -1,-3 -3,-3 -2,0 -3,2 -3,3l0 13c0,9 7,17 16,17l187 0c9,0 17,-8 17,-17l0 -135c0,-10 -8,-17 -17,-17zm-179 104l40 0c1,0 3,-2 3,-3 0,-2 -2,-4 -3,-4l-40 0c-2,0 -3,2 -3,4 0,1 1,3 3,3zm4 -24l50 0c5,0 8,-3 8,-8l0 -11c0,-4 -3,-7 -8,-7l-50 0c-4,0 -7,3 -7,7l0 11c0,5 3,8 7,8zm-1 -19c0,0 1,-1 1,-1l50 0c1,0 2,1 2,1l0 11c0,1 -1,2 -2,2l-50 0c0,0 -1,-1 -1,-2l0 -11zm136 88l28 0c5,0 8,-3 8,-8l0 -9c0,-4 -3,-8 -8,-8l-28 0c-4,0 -8,4 -8,8l0 9c0,5 4,8 8,8zm-2 -17c0,-1 1,-2 2,-2l28 0c1,0 2,1 2,2l0 9c0,1 -1,2 -2,2l-28 0c-1,0 -2,-1 -2,-2l0 -9zm38 -72c0,-8 -6,-14 -14,-14l-71 0c-8,0 -15,6 -15,14l0 29c0,8 7,15 15,15l71 0c8,0 14,-7 14,-15l0 -29 0 0zm-6 29c0,5 -4,8 -8,8l-71 0c-5,0 -8,-3 -8,-8l0 -29c0,-4 3,-8 8,-8l71 0c4,0 8,4 8,8l0 29 0 0zm-94 52c0,5 4,8 9,8l27 0c5,0 9,-3 9,-8l0 -9c0,-4 -4,-8 -9,-8l-27 0c-5,0 -9,4 -9,8l0 9zm7 -9c0,-1 1,-2 2,-2l27 0c2,0 2,1 2,2l0 9c0,1 0,2 -2,2l-27 0c-1,0 -2,-1 -2,-2l0 -9zm72 -65c-2,0 -3,1 -3,3l0 5c0,2 1,3 3,3 2,0 3,-1 3,-3l0 -5c0,-2 -1,-3 -3,-3zm13 47c0,-2 -2,-3 -3,-3l-77 0c-2,0 -3,1 -3,3 0,2 1,3 3,3l77 0c1,0 3,-1 3,-3zm-70 -47c-2,0 -3,1 -3,3l0 5c0,2 1,3 3,3 2,0 3,-1 3,-3l0 -5c0,-2 -1,-3 -3,-3zm38 6c-1,-1 -3,-1 -5,0 -1,2 -3,2 -5,2 -2,0 -3,0 -5,-2 -1,-1 -3,-1 -4,0 -2,1 -2,3 -1,4 3,3 7,5 10,5 4,0 8,-2 10,-5 2,-1 1,-3 0,-4z"/>
   <g>
   </g>
   <g>
   </g>
   <g>
   </g>
   <g>
   </g>
   <g>
   </g>
   <g>
   </g>
   <g>
   </g>
   <g>
   </g>
   <g>
   </g>
   <g>
   </g>
   <g>
   </g>
   <g>
   </g>
   <g>
   </g>
   <g>
   </g>
   <g>
   </g>
  </g>
  <rect fill="#E8E8E8" x="108" y="60" width="220.633" height="16.3692"/>
  <g id="_1090577536">
   <path fill="#E8E8E8" d="M315 205l-187 0c-7,0 -13,-6 -13,-14l0 -120 213 0 0 120c0,8 -6,14 -13,14z"/>
   <path fill="#90DCA3" d="M297 134l-71 0c-6,0 -11,-5 -11,-11l0 -29c0,-6 5,-11 11,-11l71 0c6,0 11,5 11,11l0 29c0,6 -5,11 -11,11z"/>
   <path fill="#404B58" d="M315 37l-187 0c-7,0 -13,6 -13,14l0 15 213 0 0 -15c0,-8 -6,-14 -13,-14z"/>
   <circle fill="#ED718B" cx="144" cy="52" r="6"/>
   <circle fill="#FBE096" cx="165" cy="52" r="6"/>
   <circle fill="#90DCA3" cx="187" cy="52" r="6"/>
   <path fill="white" d="M190 111l-50 0c-2,0 -4,-2 -4,-5l0 -11c0,-2 2,-4 4,-4l50 0c3,0 5,2 5,4l0 11c0,3 -2,5 -5,5z"/>
   <path fill="#ED718B" d="M247 180l-27 0c-3,0 -5,-2 -5,-5l0 -9c0,-3 2,-5 5,-5l27 0c3,0 6,2 6,5l0 9c0,3 -3,5 -6,5z"/>
   <path fill="#79C6E4" d="M303 180l-28 0c-3,0 -5,-2 -5,-5l0 -9c0,-3 2,-5 5,-5l28 0c3,0 5,2 5,5l0 9c0,3 -2,5 -5,5z"/>
   <path fill="black" fill-opacity="0.101961" d="M315 37l-14 0c7,0 13,6 13,14l0 15 -199 0 0 8 199 0 0 112c0,8 -6,14 -13,14l14 0c7,0 13,-6 13,-14l0 -135c0,-8 -6,-14 -13,-14z"/>
   <path fill="black" d="M136 164l20 0c1,0 3,-1 3,-3 0,-2 -2,-3 -3,-3l-20 0c-2,0 -3,1 -3,3 0,2 1,3 3,3zm0 -13l40 0c1,0 3,-1 3,-3 0,-2 -2,-3 -3,-3l-40 0c-2,0 -3,1 -3,3 0,2 1,3 3,3zm179 -117l-187 0c-9,0 -16,7 -16,17l0 102c0,2 1,4 3,4 2,0 3,-2 3,-4l0 -84 172 0c2,0 4,-1 4,-3 0,-2 -2,-3 -4,-3l-172 0 0 -12c0,-6 5,-11 10,-11l187 0c6,0 10,5 10,11l0 12 -12 0c-1,0 -3,1 -3,3 0,2 2,3 3,3l12 0 0 117c0,6 -4,10 -10,10l-187 0c-5,0 -10,-4 -10,-10l0 -13c0,-1 -1,-3 -3,-3 -2,0 -3,2 -3,3l0 13c0,9 7,17 16,17l187 0c9,0 17,-8 17,-17l0 -135c0,-10 -8,-17 -17,-17zm-179 104l40 0c1,0 3,-2 3,-4 0,-1 -2,-3 -3,-3l-40 0c-2,0 -3,2 -3,3 0,2 1,4 3,4zm4 -24l50 0c5,0 8,-3 8,-8l0 -11c0,-4 -3,-7 -8,-7l-50 0c-4,0 -7,3 -7,7l0 11c0,5 3,8 7,8zm-1 -19c0,0 1,-1 1,-1l50 0c1,0 2,1 2,1l0 11c0,1 -1,2 -2,2l-50 0c0,0 -1,-1 -1,-2l0 -11zm136 88l28 0c5,0 8,-4 8,-8l0 -9c0,-4 -3,-8 -8,-8l-28 0c-4,0 -8,4 -8,8l0 9c0,4 4,8 8,8zm-2 -17c0,-1 1,-2 2,-2l28 0c1,0 2,1 2,2l0 9c0,1 -1,2 -2,2l-28 0c-1,0 -2,-1 -2,-2l0 -9zm38 -72c0,-8 -6,-14 -14,-14l-71 0c-8,0 -15,6 -15,14l0 29c0,8 7,15 15,15l71 0c8,0 14,-7 14,-15l0 -29 0 0zm-6 29c0,5 -4,8 -8,8l-71 0c-5,0 -8,-3 -8,-8l0 -29c0,-5 3,-8 8,-8l71 0c4,0 8,3 8,8l0 29 0 0zm-94 52c0,4 4,8 9,8l27 0c5,0 9,-4 9,-8l0 -9c0,-4 -4,-8 -9,-8l-27 0c-5,0 -9,4 -9,8l0 9zm7 -9c0,-1 1,-2 2,-2l27 0c2,0 2,1 2,2l0 9c0,1 0,2 -2,2l-27 0c-1,0 -2,-1 -2,-2l0 -9zm72 -65c-2,0 -3,1 -3,3l0 5c0,2 1,3 3,3 2,0 3,-1 3,-3l0 -5c0,-2 -1,-3 -3,-3zm13 47c0,-2 -2,-3 -3,-3l-77 0c-2,0 -3,1 -3,3 0,2 1,3 3,3l77 0c1,0 3,-1 3,-3zm-70 -47c-2,0 -3,1 -3,3l0 5c0,2 1,3 3,3 2,0 3,-1 3,-3l0 -5c0,-2 -1,-3 -3,-3zm38 6c-1,-1 -3,-1 -5,0 -1,1 -3,2 -5,2 -2,0 -3,-1 -5,-2 -1,-1 -3,-1 -4,0 -2,1 -2,3 -1,4 3,3 7,5 10,5 4,0 8,-2 10,-5 2,-1 1,-3 0,-4z"/>
   <g>
   </g>
   <g>
   </g>
   <g>
   </g>
   <g>
   </g>
   <g>
   </g>
   <g>
   </g>
   <g>
   </g>
   <g>
   </g>
   <g>
   </g>
   <g>
   </g>
   <g>
   </g>
   <g>
   </g>
   <g>
   </g>
   <g>
   </g>
   <g>
   </g>
  </g>
  <rect fill="#E8E8E8" x="196" y="75" width="118" height="114"/>
  <path fill="black" stroke="black" stroke-width="0.999987" d="M201 187l7 0 0 -8 98 0 0 8 7 0 0 -104c0,-4 -4,-7 -7,-7l-98 0c-4,0 -7,3 -7,7l0 104 0 0zm7 -15l0 -25 98 0 0 25 -98 0zm0 -32l0 -25 98 0 0 25 -98 0zm0 -32l0 -25 98 0 0 25 -98 0zm32 -16l34 0c2,0 4,1 4,3 0,2 -2,4 -4,4l-34 0c-2,0 -4,-2 -4,-4 0,-2 2,-3 4,-3zm0 32l34 0c2,0 4,1 4,3 0,2 -2,4 -4,4l-34 0c-2,0 -4,-2 -4,-4 0,-2 2,-3 4,-3zm0 32l34 0c2,0 4,1 4,3 0,2 -2,4 -4,4l-34 0c-2,0 -4,-2 -4,-4 0,-2 2,-3 4,-3z"/>
  <g id="_1090577984">
   <g clip-path="url(#id0)">
    <image x="42" y="-21" width="265" height="265" xlink:href="4928-cache-clearing-47bc3a31-4500-426b-9e67-25c8c62eaa1f_Images\4928-cache-clearing-47bc3a31-4500-426b-9e67-25c8c62eaa1f_ImgID1.png"/>
   </g>
  </g>
  <g id="_808195328">
   <g>
    <g>
     <path fill="#C4573A" d="M188 106l-9 -10 49 -49 6 -2 2 -6 25 -25c3,-3 7,-3 10,0 2,3 2,7 0,10l-83 82z"/>
    </g>
   </g>
   <g>
    <g>
     <circle fill="#DD7F66" cx="177" cy="108" r="11"/>
    </g>
   </g>
   <g>
    <g>
     <path fill="#FED402" d="M177 108c-12,-13 -32,-13 -44,0l-40 26c-5,3 -5,9 -1,13l9 9 10 -1 -1 10 5 5 23 23c3,4 10,3 13,-1l26 -40c12,-12 12,-32 0,-44l0 0z"/>
    </g>
   </g>
   <g>
    <g>
     <path fill="#FAC600" d="M177 108c-7,-8 -18,-11 -28,-9 6,1 12,4 16,9 12,12 12,32 0,44l-26 40c0,0 -1,1 -1,1 4,4 10,3 13,-1l26 -40c12,-12 12,-32 0,-44l0 0z"/>
    </g>
   </g>
   <g>
    <g>
     <polygon fill="#8C3D27" points="171,162 177,152 133,108 123,114 "/>
    </g>
   </g>
   <g>
    <path fill="black" d="M273 12c-4,-4 -10,-4 -14,0l-25 25c0,0 0,0 0,1l-2 4 -5 2c-1,1 -1,1 -1,1l-19 19c-2,1 -2,3 0,4 1,2 3,2 4,0l19 -18 5 -3c1,0 2,-1 2,-1l2 -6 24 -24c2,-1 4,-1 6,0 1,2 1,4 0,5l-79 79c-1,-1 -2,-2 -3,-3 0,-1 -1,-1 -3,-2l19 -18c1,-2 1,-3 0,-5 -1,-1 -3,-1 -5,0l-20 21c0,0 0,0 0,0 0,0 -1,0 -1,0 -4,0 -7,2 -10,4 0,0 0,1 0,1 -12,-4 -26,-2 -36,7 0,0 -22,15 -22,15 -2,1 -2,3 -1,4 1,1 3,2 4,1l11 -7 44 44 -19 28c-1,1 -2,2 -4,3 -1,0 -3,-1 -4,-2l-8 -8 16 -16c1,-1 1,-3 0,-4 -1,-1 -3,-1 -4,0l-16 16 -5 -5 3 -4c2,-1 2,-3 0,-4 -1,-1 -3,-1 -4,0l-4 4 -5 -6 1 -7 8 -9c1,-1 1,-3 0,-4 -1,-1 -3,-1 -4,0l-9 8c0,0 0,0 0,1l-7 0 -8 -8c-1,-1 -2,-3 -2,-5 0,-1 1,-3 3,-4l7 -5c2,-1 2,-2 1,-4 -1,-1 -3,-2 -4,-1l-8 5c-3,2 -5,5 -5,9 0,3 1,7 3,9l10 9c0,1 1,1 2,1l6 0 0 6c0,1 0,2 1,2l28 28c2,2 5,4 8,4 0,0 1,0 1,0 3,-1 7,-3 8,-6l20 -30 7 -9c9,-10 12,-24 7,-36 0,0 0,0 0,0 3,-3 5,-7 5,-10 0,-1 0,-1 0,-1 0,0 0,0 0,-1l81 -80c4,-4 4,-10 0,-14l0 0zm-145 103l4 -4 41 41 -3 5 -42 -42zm49 32l-40 -39c5,-4 12,-6 19,-6l0 0c7,0 14,3 19,8 10,10 11,26 2,37zm2 -42c-2,-2 -4,-3 -6,-5 1,0 3,-1 4,-1 2,0 5,1 6,3 2,1 3,3 3,6 0,1 -1,3 -2,4 -1,-2 -3,-5 -5,-7z"/>
    <path fill="black" d="M95 186l-22 22c-1,1 -1,3 0,4 1,1 1,1 2,1 1,0 2,0 2,-1l22 -21c1,-2 1,-3 0,-5 -1,-1 -3,-1 -4,0l0 0z"/>
    <path fill="black" d="M79 195c1,0 1,-1 2,-1l12 -12c1,-1 1,-3 0,-4 -2,-2 -3,-2 -5,0l-11 11c-2,2 -2,3 0,5 0,0 1,1 2,1l0 0z"/>
   </g>
  </g>
 </g>
</svg>
