<?xml version="1.0" encoding="UTF-8"?>
<!DOCTYPE svg PUBLIC "-//W3C//DTD SVG 1.1//EN" "http://www.w3.org/Graphics/SVG/1.1/DTD/svg11.dtd">
<!-- Creator: CorelDRAW X8 -->
<svg xmlns="http://www.w3.org/2000/svg" xml:space="preserve" width="350px" height="220px" version="1.1" shape-rendering="geometricPrecision" text-rendering="geometricPrecision" image-rendering="optimizeQuality" fill-rule="evenodd" clip-rule="evenodd"
viewBox="0 0 350 220"
 xmlns:xlink="http://www.w3.org/1999/xlink">
 <g id="Слой_x0020_1">
  <metadata id="CorelCorpID_0Corel-Layer"/>
  <rect fill="#CCCCCC" stroke="green" stroke-width="4.99994" x="10" y="10" width="330" height="200"/>
  <rect fill="yellow" stroke="black" stroke-width="0.755905" y="167" width="22.9999" height="22.9999"/>
  <text x="4" y="182"  fill="black" font-weight="normal" font-size="9.42425px" font-family="Arial">Ctrl</text>
  <rect fill="white" stroke="black" stroke-width="0.755905" x="23" y="167" width="22.9999" height="22.9999"/>
  <text x="26" y="182"  fill="black" font-weight="normal" font-size="9.42425px" font-family="Arial">Win</text>
  <rect fill="white" stroke="black" stroke-width="0.755905" x="46" y="167" width="22.9999" height="22.9999"/>
  <text x="52" y="182"  fill="black" font-weight="normal" font-size="9.42425px" font-family="Arial">Alt</text>
  <rect fill="white" stroke="black" stroke-width="0.755905" x="327" y="167" width="22.9999" height="22.9999"/>
  <text x="331" y="182"  fill="black" font-weight="normal" font-size="9.42425px" font-family="Arial">Ctrl</text>
  <rect fill="white" stroke="black" stroke-width="0.755905" x="304" y="167" width="22.9999" height="22.9999"/>
  <g transform="matrix(2.64845E-14 -1 1 2.64845E-14 207.616 354.385)">
   <text x="169" y="110"  fill="black" font-weight="normal" font-size="9.42425px" font-family="Arial">|||||</text>
  </g>
  <rect fill="white" stroke="black" stroke-width="0.755905" x="281" y="167" width="22.9999" height="22.9999"/>
  <text x="284" y="182"  fill="black" font-weight="normal" font-size="9.42425px" font-family="Arial">Win</text>
  <rect fill="white" stroke="black" stroke-width="0.755905" x="258" y="167" width="22.9999" height="22.9999"/>
  <text x="264" y="182"  fill="black" font-weight="normal" font-size="9.42425px" font-family="Arial">Alt</text>
  <rect fill="white" stroke="black" stroke-width="0.755905" x="69" y="167" width="189" height="22.9999"/>
  <rect fill="white" stroke="black" stroke-width="0.755905" y="144" width="45.9999" height="22.9999"/>
  <text x="13" y="159"  fill="black" font-weight="normal" font-size="9.42425px" font-family="Arial">Shift</text>
  <rect fill="white" stroke="black" stroke-width="0.755905" x="46" y="144" width="22.9999" height="22.9999"/>
  <text x="56" y="159"  fill="black" font-weight="normal" font-size="9.42425px" font-family="Arial">\</text>
  <rect fill="white" stroke="black" stroke-width="0.755905" x="69" y="144" width="22.9999" height="22.9999"/>
  <text x="77" y="159"  fill="black" font-weight="normal" font-size="9.42425px" font-family="Arial">Z</text>
  <rect fill="white" stroke="black" stroke-width="0.755905" x="92" y="144" width="22.9999" height="22.9999"/>
  <text x="100" y="159"  fill="black" font-weight="normal" font-size="9.42425px" font-family="Arial">X</text>
  <rect fill="white" stroke="black" stroke-width="0.755905" x="115" y="144" width="22.9999" height="22.9999"/>
  <text x="123" y="159"  fill="black" font-weight="normal" font-size="9.42425px" font-family="Arial">C</text>
  <rect fill="white" stroke="black" stroke-width="0.755905" x="138" y="144" width="22.9999" height="22.9999"/>
  <text x="146" y="159"  fill="black" font-weight="normal" font-size="9.42425px" font-family="Arial">V</text>
  <rect fill="white" stroke="black" stroke-width="0.755905" x="161" y="144" width="22.9999" height="22.9999"/>
  <text x="169" y="159"  fill="black" font-weight="normal" font-size="9.42425px" font-family="Arial">B</text>
  <rect fill="white" stroke="black" stroke-width="0.755905" x="184" y="144" width="22.9999" height="22.9999"/>
  <text x="192" y="159"  fill="black" font-weight="normal" font-size="9.42425px" font-family="Arial">N</text>
  <rect fill="white" stroke="black" stroke-width="0.755905" x="207" y="144" width="22.9999" height="22.9999"/>
  <text x="214" y="159"  fill="black" font-weight="normal" font-size="9.42425px" font-family="Arial">M</text>
  <rect fill="white" stroke="black" stroke-width="0.755905" x="230" y="144" width="22.9999" height="22.9999"/>
  <text x="240" y="159"  fill="black" font-weight="normal" font-size="9.42425px" font-family="Arial">,</text>
  <rect fill="white" stroke="black" stroke-width="0.755905" x="253" y="144" width="22.9999" height="22.9999"/>
  <text x="263" y="159"  fill="black" font-weight="normal" font-size="9.42425px" font-family="Arial">.</text>
  <rect fill="white" stroke="black" stroke-width="0.755905" x="276" y="144" width="24" height="22.9999"/>
  <text x="286" y="159"  fill="black" font-weight="normal" font-size="9.42425px" font-family="Arial">/</text>
  <rect fill="white" stroke="black" stroke-width="0.755905" x="300" y="144" width="50.0001" height="22.9999"/>
  <text x="315" y="159"  fill="black" font-weight="normal" font-size="9.42425px" font-family="Arial">Shift</text>
  <rect fill="white" stroke="black" stroke-width="0.755905" y="121" width="50.9998" height="22.9999"/>
  <text x="14" y="135"  fill="black" font-weight="normal" font-size="9.42425px" font-family="Arial">Caps</text>
  <rect fill="white" stroke="black" stroke-width="0.755905" x="51" y="121" width="22.9999" height="22.9999"/>
  <text x="59" y="136"  fill="black" font-weight="normal" font-size="9.42425px" font-family="Arial">A</text>
  <rect fill="white" stroke="black" stroke-width="0.755905" x="74" y="121" width="22.9999" height="22.9999"/>
  <text x="82" y="136"  fill="black" font-weight="normal" font-size="9.42425px" font-family="Arial">S</text>
  <rect fill="white" stroke="black" stroke-width="0.755905" x="97" y="121" width="22.9999" height="22.9999"/>
  <text x="105" y="136"  fill="black" font-weight="normal" font-size="9.42425px" font-family="Arial">D</text>
  <rect fill="white" stroke="black" stroke-width="0.755905" x="120" y="121" width="22.9999" height="22.9999"/>
  <text x="128" y="136"  fill="black" font-weight="normal" font-size="9.42425px" font-family="Arial">F</text>
  <rect fill="white" stroke="black" stroke-width="0.755905" x="143" y="121" width="22.9999" height="22.9999"/>
  <text x="151" y="136"  fill="black" font-weight="normal" font-size="9.42425px" font-family="Arial">G</text>
  <rect fill="white" stroke="black" stroke-width="0.755905" x="166" y="121" width="22.9999" height="22.9999"/>
  <text x="174" y="136"  fill="black" font-weight="normal" font-size="9.42425px" font-family="Arial">H</text>
  <rect fill="white" stroke="black" stroke-width="0.755905" x="189" y="121" width="22.9999" height="22.9999"/>
  <text x="198" y="136"  fill="black" font-weight="normal" font-size="9.42425px" font-family="Arial">J</text>
  <rect fill="white" stroke="black" stroke-width="0.755905" x="212" y="121" width="22.9999" height="22.9999"/>
  <text x="220" y="136"  fill="black" font-weight="normal" font-size="9.42425px" font-family="Arial">K</text>
  <rect fill="white" stroke="black" stroke-width="0.755905" x="235" y="121" width="22.9999" height="22.9999"/>
  <text x="244" y="136"  fill="black" font-weight="normal" font-size="9.42425px" font-family="Arial">L</text>
  <rect fill="white" stroke="black" stroke-width="0.755905" x="258" y="121" width="22.9999" height="22.9999"/>
  <text x="268" y="136"  fill="black" font-weight="normal" font-size="9.42425px" font-family="Arial">;</text>
  <rect fill="white" stroke="black" stroke-width="0.755905" x="281" y="121" width="24" height="22.9999"/>
  <text x="291" y="136"  fill="black" font-weight="normal" font-size="9.42425px" font-family="Arial">‘</text>
  <rect fill="white" stroke="black" stroke-width="0.755905" x="305" y="121" width="44.9998" height="22.9999"/>
  <text x="316" y="136"  fill="black" font-weight="normal" font-size="9.42425px" font-family="Arial">Enter</text>
  <rect fill="white" stroke="black" stroke-width="0.755905" y="98" width="45.9999" height="22.9999"/>
  <text x="15" y="113"  fill="black" font-weight="normal" font-size="9.42425px" font-family="Arial">Tab</text>
  <rect fill="white" stroke="black" stroke-width="0.755905" x="46" y="98" width="22.9999" height="22.9999"/>
  <text x="54" y="113"  fill="black" font-weight="normal" font-size="9.42425px" font-family="Arial">Q</text>
  <rect fill="white" stroke="black" stroke-width="0.755905" x="69" y="98" width="22.9999" height="22.9999"/>
  <text x="76" y="113"  fill="black" font-weight="normal" font-size="9.42425px" font-family="Arial">W</text>
  <rect fill="white" stroke="black" stroke-width="0.755905" x="92" y="98" width="22.9999" height="22.9999"/>
  <text x="100" y="113"  fill="black" font-weight="normal" font-size="9.42425px" font-family="Arial">E</text>
  <rect fill="white" stroke="black" stroke-width="0.755905" x="115" y="98" width="22.9999" height="22.9999"/>
  <text x="123" y="113"  fill="black" font-weight="normal" font-size="9.42425px" font-family="Arial">R</text>
  <rect fill="white" stroke="black" stroke-width="0.755905" x="138" y="98" width="22.9999" height="22.9999"/>
  <text x="146" y="113"  fill="black" font-weight="normal" font-size="9.42425px" font-family="Arial">T</text>
  <rect fill="white" stroke="black" stroke-width="0.755905" x="161" y="98" width="22.9999" height="22.9999"/>
  <text x="169" y="113"  fill="black" font-weight="normal" font-size="9.42425px" font-family="Arial">Y</text>
  <rect fill="white" stroke="black" stroke-width="0.755905" x="184" y="98" width="22.9999" height="22.9999"/>
  <text x="192" y="113"  fill="black" font-weight="normal" font-size="9.42425px" font-family="Arial">U</text>
  <rect fill="white" stroke="black" stroke-width="0.755905" x="207" y="98" width="22.9999" height="22.9999"/>
  <text x="217" y="113"  fill="black" font-weight="normal" font-size="9.42425px" font-family="Arial">I</text>
  <rect fill="white" stroke="black" stroke-width="0.755905" x="230" y="98" width="22.9999" height="22.9999"/>
  <text x="238" y="113"  fill="black" font-weight="normal" font-size="9.42425px" font-family="Arial">O</text>
  <rect fill="white" stroke="black" stroke-width="0.755905" x="253" y="98" width="22.9999" height="22.9999"/>
  <text x="261" y="113"  fill="black" font-weight="normal" font-size="9.42425px" font-family="Arial">P</text>
  <rect fill="white" stroke="black" stroke-width="0.755905" x="276" y="98" width="24" height="22.9999"/>
  <text x="286" y="112"  fill="black" font-weight="normal" font-size="9.42425px" font-family="Arial">[</text>
  <rect fill="white" stroke="black" stroke-width="0.755905" x="300" y="98" width="22.9999" height="22.9999"/>
  <text x="310" y="112"  fill="black" font-weight="normal" font-size="9.42425px" font-family="Arial">]</text>
  <rect fill="white" stroke="black" stroke-width="0.755905" x="323" y="98" width="26.9998" height="22.9999"/>
  <text x="335" y="112"  fill="black" font-weight="normal" font-size="9.42425px" font-family="Arial">\</text>
  <rect fill="white" stroke="black" stroke-width="0.755905" x="28" y="75" width="22.9999" height="22.9999"/>
  <text x="37" y="89"  fill="black" font-weight="normal" font-size="9.42425px" font-family="Arial">1</text>
  <rect fill="white" stroke="black" stroke-width="0.755905" x="51" y="75" width="22.9999" height="22.9999"/>
  <text x="60" y="90"  fill="black" font-weight="normal" font-size="9.42425px" font-family="Arial">2</text>
  <rect fill="white" stroke="black" stroke-width="0.755905" x="74" y="75" width="22.9999" height="22.9999"/>
  <text x="83" y="90"  fill="black" font-weight="normal" font-size="9.42425px" font-family="Arial">3</text>
  <rect fill="white" stroke="black" stroke-width="0.755905" x="97" y="75" width="22.9999" height="22.9999"/>
  <text x="106" y="90"  fill="black" font-weight="normal" font-size="9.42425px" font-family="Arial">4</text>
  <rect fill="white" stroke="black" stroke-width="0.755905" x="120" y="75" width="22.9999" height="22.9999"/>
  <text x="129" y="90"  fill="black" font-weight="normal" font-size="9.42425px" font-family="Arial">5</text>
  <rect fill="white" stroke="black" stroke-width="0.755905" x="143" y="75" width="22.9999" height="22.9999"/>
  <text x="152" y="90"  fill="black" font-weight="normal" font-size="9.42425px" font-family="Arial">6</text>
  <rect fill="white" stroke="black" stroke-width="0.755905" x="166" y="75" width="22.9999" height="22.9999"/>
  <text x="175" y="90"  fill="black" font-weight="normal" font-size="9.42425px" font-family="Arial">7</text>
  <rect fill="white" stroke="black" stroke-width="0.755905" x="189" y="75" width="22.9999" height="22.9999"/>
  <text x="198" y="90"  fill="black" font-weight="normal" font-size="9.42425px" font-family="Arial">8</text>
  <rect fill="white" stroke="black" stroke-width="0.755905" x="212" y="75" width="22.9999" height="22.9999"/>
  <text x="221" y="90"  fill="black" font-weight="normal" font-size="9.42425px" font-family="Arial">9</text>
  <rect fill="white" stroke="black" stroke-width="0.755905" x="235" y="75" width="22.9999" height="22.9999"/>
  <text x="244" y="90"  fill="black" font-weight="normal" font-size="9.42425px" font-family="Arial">0</text>
  <rect fill="white" stroke="black" stroke-width="0.755905" x="258" y="75" width="22.9999" height="22.9999"/>
  <text x="268" y="90"  fill="black" font-weight="normal" font-size="9.42425px" font-family="Arial">-</text>
  <rect fill="white" stroke="black" stroke-width="0.755905" x="281" y="75" width="24" height="22.9999"/>
  <text x="289" y="90"  fill="black" font-weight="normal" font-size="9.42425px" font-family="Arial">=</text>
  <rect fill="white" stroke="black" stroke-width="0.755905" x="305" y="75" width="44.9998" height="22.9999"/>
  <text x="317" y="90"  fill="black" font-weight="normal" font-size="9.42425px" font-family="Arial">Back</text>
  <rect fill="white" stroke="black" stroke-width="0.755905" y="75" width="27.9999" height="22.9999"/>
  <text x="13" y="90"  fill="black" font-weight="normal" font-size="9.42425px" font-family="Arial">`</text>
  <rect fill="white" stroke="black" stroke-width="0.755905" y="30" width="22.9999" height="22.9999"/>
  <text x="3" y="45"  fill="black" font-weight="normal" font-size="9.42425px" font-family="Arial">Esc</text>
  <rect fill="white" stroke="black" stroke-width="0.755905" x="33" y="30" width="22.9999" height="22.9999"/>
  <text x="39" y="45"  fill="black" font-weight="normal" font-size="9.42425px" font-family="Arial">F1</text>
  <rect fill="white" stroke="black" stroke-width="0.755905" x="79" y="30" width="22.9999" height="22.9999"/>
  <text x="85" y="45"  fill="black" font-weight="normal" font-size="9.42425px" font-family="Arial">F3</text>
  <rect fill="white" stroke="black" stroke-width="0.755905" x="102" y="30" width="22.9999" height="22.9999"/>
  <text x="108" y="45"  fill="black" font-weight="normal" font-size="9.42425px" font-family="Arial">F4</text>
  <rect fill="yellow" stroke="black" stroke-width="0.755905" x="125" y="30" width="22.9999" height="22.9999"/>
  <text x="131" y="45"  fill="black" font-weight="normal" font-size="9.42425px" font-family="Arial">F5</text>
  <rect fill="white" stroke="black" stroke-width="0.755905" x="148" y="30" width="22.9999" height="22.9999"/>
  <text x="154" y="45"  fill="black" font-weight="normal" font-size="9.42425px" font-family="Arial">F6</text>
  <rect fill="white" stroke="black" stroke-width="0.755905" x="171" y="30" width="22.9999" height="22.9999"/>
  <text x="177" y="45"  fill="black" font-weight="normal" font-size="9.42425px" font-family="Arial">F7</text>
  <rect fill="white" stroke="black" stroke-width="0.755905" x="194" y="30" width="22.9999" height="22.9999"/>
  <text x="200" y="45"  fill="black" font-weight="normal" font-size="9.42425px" font-family="Arial">F8</text>
  <rect fill="white" stroke="black" stroke-width="0.755905" x="217" y="30" width="22.9999" height="22.9999"/>
  <text x="223" y="45"  fill="black" font-weight="normal" font-size="9.42425px" font-family="Arial">F9</text>
  <rect fill="white" stroke="black" stroke-width="0.755905" x="240" y="30" width="22.9999" height="22.9999"/>
  <text x="243" y="45"  fill="black" font-weight="normal" font-size="9.42425px" font-family="Arial">F10</text>
  <rect fill="white" stroke="black" stroke-width="0.755905" x="263" y="30" width="22.9999" height="22.9999"/>
  <text x="266" y="45"  fill="black" font-weight="normal" font-size="9.42425px" font-family="Arial">F11</text>
  <rect fill="white" stroke="black" stroke-width="0.755905" x="286" y="30" width="22.9999" height="22.9999"/>
  <text x="289" y="45"  fill="black" font-weight="normal" font-size="9.42425px" font-family="Arial">F12</text>
  <rect fill="white" stroke="black" stroke-width="0.755905" x="56" y="30" width="22.9999" height="22.9999"/>
  <text x="62" y="45"  fill="black" font-weight="normal" font-size="9.42425px" font-family="Arial">F2</text>
  <rect fill="white" stroke="black" stroke-width="0.755905" x="319" y="30" width="31" height="22.9999"/>
  <text x="321" y="45"  fill="black" font-weight="normal" font-size="9.42425px" font-family="Arial">Delete</text>
 </g>
</svg>
